{
.appVersion = "895";
copyright = "Copyright 2016 Google Inc. All Rights Reserved.";
customParameters = (
{
name = description;
value = "Designed by Monotype design team.";
},
{
name = license;
value = "This Font Software is licensed under the SIL Open Font License, Version 1.1. This Font Software is distributed on an \"AS IS\" BASIS, WITHOUT WARRANTIES OR CONDITIONS OF ANY KIND, either express or implied. See the SIL Open Font License for the specific language, permissions and limitations governing your use of this Font Software.";
},
{
name = licenseURL;
value = "http://scripts.sil.org/OFL";
},
{
name = vendorID;
value = GOOG;
},
{
name = trademark;
value = "Noto is a trademark of Google Inc.";
},
{
name = fsType;
value = (
);
},
{
name = panose;
value = (
2,
11,
5,
2,
4,
5,
4,
2,
2,
4
);
},
{
name = unicodeRanges;
value = (
100
);
},
{
name = codePageRanges;
value = (
1252
);
}
);
date = "2016-11-10 14:46:49 +0000";
designer = "Monotype Design Team";
designerURL = "http://www.monotype.com/studio";
familyName = "Noto Sans Syloti Nagri";
features = (
{
code = "sub uniA807 uniA807 by g54;\012sub uniA807 uniA814 by g55;\012sub uniA80C uniA80C by g56;\012sub uniA80C uniA80D by g57;\012sub uniA80E uniA80E by g58;\012sub uniA814 uniA814 by g59;\012sub uniA818 uniA814 by g60;\012sub uniA818 uniA816 by g61;\012sub uniA818 uniA818 by g62;\012sub uniA81B uniA81B by g63;\012sub uniA81D uniA81B by g64;\012sub uniA81D uniA81D by g65;\012sub uniA81E uniA81F by g66;\012sub uniA821 uniA807 by g67;\012sub uniA821 uniA80C by g68;\012sub uniA821 uniA80D by g69;\012sub uniA821 uniA814 by g70;\012sub uniA821 uniA81B by g71;\012";
name = dlig;
}
);
fontMaster = (
{
ascender = 2189;
capHeight = 1274;
customParameters = (
{
name = typoAscender;
value = 2189;
},
{
name = typoDescender;
value = -600;
},
{
name = typoLineGap;
value = 0;
},
{
name = winAscent;
value = 2189;
},
{
name = winDescent;
value = 600;
},
{
name = hheaAscender;
value = 2189;
},
{
name = hheaDescender;
value = -600;

glyphs = (
{
glyphname = "eight-bengali";
lastChange = "2016-11-10 14:46:36 +0000";
layers = (
{
layerId = "96E79A57-6EA7-45C5-8AEB-CCA87A3E1305";
paths = (
{
closed = 1;
nodes = (
"566 0 OFFCURVE",
"640 18 OFFCURVE",
"707 55 CURVE SMOOTH",
"840 128 OFFCURVE",
"918 268 OFFCURVE",
"918 437 CURVE SMOOTH",
"918 499 OFFCURVE",
"906 553 OFFCURVE",
"881 600 CURVE",
"889 599 OFFCURVE",
"897 598 OFFCURVE",
"905 598 CURVE SMOOTH",
"1052 598 OFFCURVE",
"1151 660 OFFCURVE",
"1201 785 CURVE",
"1053 857 LINE",
"1012 778 OFFCURVE",
"963 738 OFFCURVE",
"835 738 CURVE SMOOTH",
"776 738 OFFCURVE",
"732 745 OFFCURVE",
"641 762 CURVE SMOOTH",
"617 767 OFFCURVE",
"587 769 OFFCURVE",
"551 769 CURVE SMOOTH",
"495 769 OFFCURVE",
"411 753 OFFCURVE",
"343 728 CURVE",
"343 1026 LINE SMOOTH",
"343 1219 OFFCURVE",
"254 1272 OFFCURVE",
"63 1277 CURVE",
"45 1120 LINE",
"82 1119 OFFCURVE",
"111 1115 OFFCURVE",
"131 1108 CURVE SMOOTH",
"170 1094 OFFCURVE",
"186 1068 OFFCURVE",
"186 985 CURVE SMOOTH",
"186 336 LINE SMOOTH",
"186 248 OFFCURVE",
"199 181 OFFCURVE",
"226 135 CURVE SMOOTH",
"278 43 OFFCURVE",
"362 0 OFFCURVE",
"485 0 CURVE SMOOTH"
);
},
{
closed = 1;
nodes = (
"395 146 OFFCURVE",
"343 181 OFFCURVE",
"343 344 CURVE SMOOTH",
"343 576 LINE",
"410 607 OFFCURVE",
"483 623 OFFCURVE",
"562 623 CURVE SMOOTH",
"682 623 OFFCURVE",
"753 558 OFFCURVE",
"753 434 CURVE SMOOTH",
"753 275 OFFCURVE",
"648 146 OFFCURVE",
"487 146 CURVE SMOOTH"
);
}
);
width = 1212;
}
);
note = uni09EE;
unicode = 09EE;
},
{
glyphname = "five-bengali";
lastChange = "2016-11-10 14:46:36 +0000";
layers = (
{
layerId = "96E79A57-6EA7-45C5-8AEB-CCA87A3E1305";
paths = (
{
closed = 1;
nodes = (
"834 0 OFFCURVE",
"1013 45 OFFCURVE",
"1149 128 CURVE",
"1082 299 LINE",
"1067 296 OFFCURVE",
"1043 295 OFFCURVE",
"1008 295 CURVE SMOOTH",
"873 295 OFFCURVE",
"803 352 OFFCURVE",
"803 452 CURVE SMOOTH",
"803 576 OFFCURVE",
"900 678 OFFCURVE",
"1160 819 CURVE",
"1091 933 LINE",
"1086 932 OFFCURVE",
"1081 932 OFFCURVE",
"1076 932 CURVE SMOOTH",
"1061 932 LINE SMOOTH",
"957 932 OFFCURVE",
"888 985 OFFCURVE",
"888 1062 CURVE SMOOTH",
"888 1103 OFFCURVE",
"901 1142 OFFCURVE",
"928 1178 CURVE",
"848 1288 LINE",
"328 1043 OFFCURVE",
"100 801 OFFCURVE",
"100 508 CURVE SMOOTH",
"100 195 OFFCURVE",
"314 0 OFFCURVE",
"642 0 CURVE SMOOTH"
);
},
{
closed = 1;
nodes = (
"417 146 OFFCURVE",
"266 268 OFFCURVE",
"266 488 CURVE SMOOTH",
"266 707 OFFCURVE",
"430 907 OFFCURVE",
"753 1075 CURVE",
"752 1068 OFFCURVE",
"751 1056 OFFCURVE",
"751 1038 CURVE SMOOTH",
"751 942 OFFCURVE",
"813 861 OFFCURVE",
"912 833 CURVE",
"727 705 OFFCURVE",
"647 592 OFFCURVE",
"647 455 CURVE SMOOTH",
"647 302 OFFCURVE",
"748 207 OFFCURVE",
"932 183 CURVE",
"816 151 OFFCURVE",
"755 146 OFFCURVE",
"656 146 CURVE SMOOTH"
);
}
);
width = 1212;
}
);
note = uni09EB;
unicode = 09EB;
},
{
glyphname = "four-bengali";
lastChange = "2016-11-10 14:46:36 +0000";
layers = (
{
layerId = "96E79A57-6EA7-45C5-8AEB-CCA87A3E1305";
paths = (
{
closed = 1;
nodes = (
"926 0 OFFCURVE",
"1085 119 OFFCURVE",
"1085 356 CURVE SMOOTH",
"1085 504 OFFCURVE",
"1008 598 OFFCURVE",
"805 678 CURVE",
"985 751 OFFCURVE",
"1063 842 OFFCURVE",
"1063 975 CURVE SMOOTH",
"1063 1152 OFFCURVE",
"898 1274 OFFCURVE",
"594 1274 CURVE SMOOTH",
"503 1274 OFFCURVE",
"423 1260 OFFCURVE",
"356 1231 CURVE SMOOTH",
"221 1174 OFFCURVE",
"151 1073 OFFCURVE",
"151 965 CURVE SMOOTH",
"151 832 OFFCURVE",
"218 756 OFFCURVE",
"405 667 CURVE",
"218 591 OFFCURVE",
"128 492 OFFCURVE",
"128 356 CURVE SMOOTH",
"128 137 OFFCURVE",
"307 0 OFFCURVE",
"607 0 CURVE SMOOTH"
);
},
{
closed = 1;
nodes = (
"409 146 OFFCURVE",
"293 226 OFFCURVE",
"293 346 CURVE SMOOTH",
"293 463 OFFCURVE",
"389 541 OFFCURVE",
"606 598 CURVE",
"799 557 OFFCURVE",
"922 464 OFFCURVE",
"922 355 CURVE SMOOTH",
"922 218 OFFCURVE",
"811 146 OFFCURVE",
"606 146 CURVE SMOOTH"
);
},
{
closed = 1;
nodes = (
"405 795 OFFCURVE",
"316 860 OFFCURVE",
"316 964 CURVE SMOOTH",
"316 1063 OFFCURVE",
"436 1128 OFFCURVE",
"596 1128 CURVE SMOOTH",
"787 1128 OFFCURVE",
"898 1066 OFFCURVE",
"898 965 CURVE SMOOTH",
"898 873 OFFCURVE",
"781 788 OFFCURVE",
"608 744 CURVE"
);
}
);
width = 1212;
}
);
note = uni09EA;
unicode = 09EA;
},
{
glyphname = "nine-bengali";
lastChange = "2016-11-10 14:46:36 +0000";
layers = (
{
layerId = "96E79A57-6EA7-45C5-8AEB-CCA87A3E1305";
paths = (
{
closed = 1;
nodes = (
"404 0 LINE SMOOTH",
"879 0 OFFCURVE",
"1143 153 OFFCURVE",
"1143 442 CURVE SMOOTH",
"1143 533 OFFCURVE",
"1124 607 OFFCURVE",
"1086 663 CURVE SMOOTH",
"1009 775 OFFCURVE",
"860 851 OFFCURVE",
"631 914 CURVE SMOOTH",
"534 941 OFFCURVE",
"460 963 OFFCURVE",
"409 982 CURVE SMOOTH",
"358 1000 OFFCURVE",
"322 1016 OFFCURVE",
"300 1031 CURVE",
"255 1059 OFFCURVE",
"242 1081 OFFCURVE",
"242 1124 CURVE SMOOTH",
"242 1150 OFFCURVE",
"261 1182 OFFCURVE",
"298 1220 CURVE",
"169 1293 LINE",
"104 1232 OFFCURVE",
"71 1167 OFFCURVE",
"71 1098 CURVE SMOOTH",
"71 1040 OFFCURVE",
"88 993 OFFCURVE",
"123 958 CURVE SMOOTH",
"192 886 OFFCURVE",
"323 834 OFFCURVE",
"562 767 CURVE SMOOTH",
"668 736 OFFCURVE",
"750 706 OFFCURVE",
"809 677 CURVE SMOOTH",
"925 617 OFFCURVE",
"975 552 OFFCURVE",
"975 439 CURVE SMOOTH",
"975 283 OFFCURVE",
"843 183 OFFCURVE",
"594 150 CURVE",
"657 215 OFFCURVE",
"682 280 OFFCURVE",
"682 371 CURVE SMOOTH",
"682 530 OFFCURVE",
"545 645 OFFCURVE",
"356 645 CURVE SMOOTH",
"165 645 OFFCURVE",
"55 559 OFFCURVE",
"55 424 CURVE SMOOTH",
"55 379 OFFCURVE",
"67 329 OFFCURVE",
"90 276 CURVE",
"245 312 LINE",
"229 340 OFFCURVE",
"221 370 OFFCURVE",
"221 402 CURVE SMOOTH",
"221 466 OFFCURVE",
"269 501 OFFCURVE",
"358 501 CURVE SMOOTH",
"465 501 OFFCURVE",
"526 442 OFFCURVE",
"526 347 CURVE SMOOTH",
"526 252 OFFCURVE",
"462 187 OFFCURVE",
"329 139 CURVE",
"375 0 LINE"
);
}
);
width = 1212;
}
);
note = uni09EF;
unicode = 09EF;
},
{
glyphname = "one-bengali";
lastChange = "2016-11-10 14:46:36 +0000";
layers = (
{
layerId = "96E79A57-6EA7-45C5-8AEB-CCA87A3E1305";
paths = (
{
closed = 1;
nodes = (
"667 0 OFFCURVE",
"740 15 OFFCURVE",
"805 45 CURVE SMOOTH",
"936 105 OFFCURVE",
"1014 221 OFFCURVE",
"1014 365 CURVE SMOOTH",
"1014 428 OFFCURVE",
"1006 482 OFFCURVE",
"989 529 CURVE SMOOTH",
"955 621 OFFCURVE",
"884 698 OFFCURVE",
"699 822 CURVE SMOOTH",
"614 879 OFFCURVE",
"552 923 OFFCURVE",
"513 954 CURVE SMOOTH",
"436 1015 OFFCURVE",
"421 1047 OFFCURVE",
"421 1098 CURVE SMOOTH",
"421 1142 OFFCURVE",
"449 1180 OFFCURVE",
"488 1220 CURVE",
"357 1293 LINE",
"290 1229 OFFCURVE",
"249 1149 OFFCURVE",
"249 1084 CURVE SMOOTH",
"249 1004 OFFCURVE",
"283 942 OFFCURVE",
"377 863 CURVE SMOOTH",
"424 823 OFFCURVE",
"494 770 OFFCURVE",
"587 704 CURVE SMOOTH",
"800 555 OFFCURVE",
"850 487 OFFCURVE",
"850 370 CURVE SMOOTH",
"850 242 OFFCURVE",
"746 153 OFFCURVE",
"585 153 CURVE SMOOTH",
"482 153 OFFCURVE",
"420 188 OFFCURVE",
"420 245 CURVE SMOOTH",
"420 296 OFFCURVE",
"455 322 OFFCURVE",
"538 342 CURVE",
"479 498 LINE",
"327 454 OFFCURVE",
"252 371 OFFCURVE",
"252 250 CURVE SMOOTH",
"252 98 OFFCURVE",
"375 0 OFFCURVE",
"587 0 CURVE SMOOTH"
);
}
);
width = 1212;
}
);
note = uni09E7;
unicode = 09E7;
},
{
glyphname = "seven-bengali";
lastChange = "2016-11-10 14:46:36 +0000";
layers = (
{
layerId = "96E79A57-6EA7-45C5-8AEB-CCA87A3E1305";
paths = (
{
closed = 1;
nodes = (
"1082 157 LINE",
"1045 158 OFFCURVE",
"1016 163 OFFCURVE",
"997 170 CURVE SMOOTH",
"957 184 OFFCURVE",
"941 209 OFFCURVE",
"941 292 CURVE SMOOTH",
"941 931 LINE SMOOTH",
"941 1015 OFFCURVE",
"930 1079 OFFCURVE",
"907 1124 CURVE SMOOTH",
"862 1212 OFFCURVE",
"765 1274 OFFCURVE",
"608 1274 CURVE SMOOTH",
"530 1274 OFFCURVE",
"454 1254 OFFCURVE",
"381 1214 CURVE SMOOTH",
"234 1134 OFFCURVE",
"144 992 OFFCURVE",
"144 841 CURVE SMOOTH",
"144 626 OFFCURVE",
"288 507 OFFCURVE",
"549 507 CURVE SMOOTH",
"627 507 OFFCURVE",
"705 519 OFFCURVE",
"784 544 CURVE",
"784 250 LINE SMOOTH",
"784 57 OFFCURVE",
"875 5 OFFCURVE",
"1064 0 CURVE"
);
},
{
closed = 1;
nodes = (
"391 659 OFFCURVE",
"309 719 OFFCURVE",
"309 832 CURVE SMOOTH",
"309 885 OFFCURVE",
"323 934 OFFCURVE",
"352 979 CURVE SMOOTH",
"408 1070 OFFCURVE",
"511 1128 OFFCURVE",
"608 1128 CURVE SMOOTH",
"659 1128 OFFCURVE",
"697 1119 OFFCURVE",
"722 1101 CURVE SMOOTH",
"772 1064 OFFCURVE",
"783 1019 OFFCURVE",
"783 899 CURVE SMOOTH",
"783 709 LINE",
"712 676 OFFCURVE",
"633 659 OFFCURVE",
"544 659 CURVE SMOOTH"
);
}
);
width = 1212;
}
);
note = uni09ED;
unicode = 09ED;
},
{
glyphname = "six-bengali";
lastChange = "2016-11-10 14:46:36 +0000";
layers = (
{
layerId = "96E79A57-6EA7-45C5-8AEB-CCA87A3E1305";
paths = (
{
closed = 1;
nodes = (
"987 79 OFFCURVE",
"1145 257 OFFCURVE",
"1145 548 CURVE SMOOTH",
"1145 669 OFFCURVE",
"1098 820 OFFCURVE",
"1021 925 CURVE",
"908 897 LINE",
"853 749 OFFCURVE",
"797 672 OFFCURVE",
"713 672 CURVE SMOOTH",
"693 672 OFFCURVE",
"676 679 OFFCURVE",
"661 693 CURVE",
"646 706 OFFCURVE",
"638 740 OFFCURVE",
"638 793 CURVE SMOOTH",
"638 964 LINE SMOOTH",
"638 1159 OFFCURVE",
"546 1210 OFFCURVE",
"358 1215 CURVE",
"340 1058 LINE",
"377 1057 OFFCURVE",
"406 1053 OFFCURVE",
"426 1046 CURVE SMOOTH",
"465 1032 OFFCURVE",
"481 1006 OFFCURVE",
"481 923 CURVE SMOOTH",
"481 820 LINE SMOOTH",
"481 747 OFFCURVE",
"488 692 OFFCURVE",
"503 653 CURVE SMOOTH",
"531 576 OFFCURVE",
"601 526 OFFCURVE",
"697 526 CURVE SMOOTH",
"805 526 OFFCURVE",
"893 589 OFFCURVE",
"961 714 CURVE",
"980 661 OFFCURVE",
"990 608 OFFCURVE",
"990 554 CURVE SMOOTH",
"990 350 OFFCURVE",
"884 234 OFFCURVE",
"700 234 CURVE SMOOTH",
"445 234 OFFCURVE",
"303 469 OFFCURVE",
"196 972 CURVE",
"43 926 LINE",
"85 742 OFFCURVE",
"136 587 OFFCURVE",
"197 461 CURVE SMOOTH",
"317 208 OFFCURVE",
"477 79 OFFCURVE",
"710 79 CURVE SMOOTH"
);
}
);
width = 1212;
}
);
note = uni09EC;
unicode = 09EC;
},
{
glyphname = "three-bengali";
lastChange = "2016-11-10 14:46:36 +0000";
layers = (
{
layerId = "96E79A57-6EA7-45C5-8AEB-CCA87A3E1305";
paths = (
{
closed = 1;
nodes = (
"984 79 OFFCURVE",
"1133 270 OFFCURVE",
"1133 605 CURVE SMOOTH",
"1133 716 OFFCURVE",
"1114 817 OFFCURVE",
"1077 907 CURVE SMOOTH",
"1002 1086 OFFCURVE",
"865 1186 OFFCURVE",
"690 1186 CURVE SMOOTH",
"537 1186 OFFCURVE",
"423 1101 OFFCURVE",
"423 957 CURVE SMOOTH",
"423 893 OFFCURVE",
"440 826 OFFCURVE",
"474 755 CURVE",
"636 799 LINE",
"610 850 OFFCURVE",
"597 896 OFFCURVE",
"597 939 CURVE SMOOTH",
"597 1004 OFFCURVE",
"639 1042 OFFCURVE",
"711 1042 CURVE SMOOTH",
"758 1042 OFFCURVE",
"801 1023 OFFCURVE",
"841 984 CURVE SMOOTH",
"921 907 OFFCURVE",
"969 765 OFFCURVE",
"969 605 CURVE SMOOTH",
"969 360 OFFCURVE",
"878 234 OFFCURVE",
"701 234 CURVE SMOOTH",
"609 234 OFFCURVE",
"534 265 OFFCURVE",
"475 328 CURVE SMOOTH",
"358 453 OFFCURVE",
"280 690 OFFCURVE",
"211 1045 CURVE",
"59 1004 LINE",
"123 649 OFFCURVE",
"208 413 OFFCURVE",
"310 276 CURVE SMOOTH",
"412 139 OFFCURVE",
"534 79 OFFCURVE",
"711 79 CURVE SMOOTH"
);
}
);
width = 1212;
}
);
note = uni09E9;
unicode = 09E9;
},
{
glyphname = "two-bengali";
lastChange = "2016-11-10 14:46:36 +0000";
layers = (
{
layerId = "96E79A57-6EA7-45C5-8AEB-CCA87A3E1305";
paths = (
{
closed = 1;
nodes = (
"1133 58 LINE",
"974 189 OFFCURVE",
"812 287 OFFCURVE",
"648 354 CURVE",
"884 386 OFFCURVE",
"1025 516 OFFCURVE",
"1025 683 CURVE SMOOTH",
"1025 874 OFFCURVE",
"915 964 OFFCURVE",
"660 1012 CURVE SMOOTH",
"591 1025 OFFCURVE",
"542 1037 OFFCURVE",
"513 1046 CURVE SMOOTH",
"454 1064 OFFCURVE",
"433 1081 OFFCURVE",
"433 1124 CURVE SMOOTH",
"433 1157 OFFCURVE",
"448 1189 OFFCURVE",
"478 1220 CURVE",
"348 1293 LINE",
"290 1223 OFFCURVE",
"261 1160 OFFCURVE",
"261 1103 CURVE SMOOTH",
"261 988 OFFCURVE",
"358 922 OFFCURVE",
"583 877 CURVE SMOOTH",
"692 856 OFFCURVE",
"766 831 OFFCURVE",
"803 804 CURVE SMOOTH",
"840 777 OFFCURVE",
"859 736 OFFCURVE",
"859 683 CURVE SMOOTH",
"859 546 OFFCURVE",
"733 478 OFFCURVE",
"481 478 CURVE SMOOTH",
"368 478 OFFCURVE",
"279 489 OFFCURVE",
"163 525 CURVE",
"134 379 LINE",
"583 279 OFFCURVE",
"778 163 OFFCURVE",
"1039 -53 CURVE"
);
}
);
width = 1212;
}
);
note = uni09E8;
unicode = 09E8;
},
{
glyphname = "zero-bengali";
lastChange = "2016-11-10 14:46:36 +0000";
layers = (
{
layerId = "96E79A57-6EA7-45C5-8AEB-CCA87A3E1305";
paths = (
{
closed = 1;
nodes = (
"887 186 OFFCURVE",
"1065 371 OFFCURVE",
"1065 644 CURVE SMOOTH",
"1065 940 OFFCURVE",
"905 1114 OFFCURVE",
"614 1114 CURVE SMOOTH",
"519 1114 OFFCURVE",
"437 1095 OFFCURVE",
"367 1056 CURVE SMOOTH",
"226 979 OFFCURVE",
"147 827 OFFCURVE",
"147 656 CURVE SMOOTH",
"147 353 OFFCURVE",
"314 186 OFFCURVE",
"594 186 CURVE SMOOTH"
);
},
{
closed = 1;
nodes = (
"411 332 OFFCURVE",
"312 445 OFFCURVE",
"312 637 CURVE SMOOTH",
"312 842 OFFCURVE",
"431 968 OFFCURVE",
"624 968 CURVE SMOOTH",
"800 968 OFFCURVE",
"900 856 OFFCURVE",
"900 663 CURVE SMOOTH",
"900 460 OFFCURVE",
"783 332 OFFCURVE",
"591 332 CURVE SMOOTH"
);
}
);
width = 1212;
}
);
note = uni09E6;
unicode = 09E6;
},
{
glyphname = flowerpunctuationmark;
lastChange = "2016-11-10 14:46:36 +0000";
layers = (
{
layerId = "96E79A57-6EA7-45C5-8AEB-CCA87A3E1305";
paths = (
{
closed = 1;
nodes = (
"757 121 OFFCURVE",
"815 181 OFFCURVE",
"815 313 CURVE SMOOTH",
"815 358 OFFCURVE",
"808 411 OFFCURVE",
"793 471 CURVE",
"886 390 OFFCURVE",
"994 342 OFFCURVE",
"1061 342 CURVE SMOOTH",
"1148 342 OFFCURVE",
"1221 438 OFFCURVE",
"1221 539 CURVE SMOOTH",
"1221 608 OFFCURVE",
"1176 659 OFFCURVE",
"1087 692 CURVE",
"1061 703 OFFCURVE",
"1016 714 OFFCURVE",
"952 723 CURVE",
"1092 756 OFFCURVE",
"1217 837 OFFCURVE",
"1217 940 CURVE SMOOTH",
"1217 1027 OFFCURVE",
"1128 1124 OFFCURVE",
"1051 1124 CURVE SMOOTH",
"1018 1124 OFFCURVE",
"985 1115 OFFCURVE",
"951 1097 CURVE SMOOTH",
"882 1061 OFFCURVE",
"838 1022 OFFCURVE",
"793 971 CURVE",
"808 1028 OFFCURVE",
"815 1080 OFFCURVE",
"815 1126 CURVE SMOOTH",
"815 1259 OFFCURVE",
"758 1321 OFFCURVE",
"641 1321 CURVE SMOOTH",
"526 1321 OFFCURVE",
"469 1255 OFFCURVE",
"469 1124 CURVE SMOOTH",
"469 1076 OFFCURVE",
"477 1025 OFFCURVE",
"492 971 CURVE",
"393 1073 OFFCURVE",
"308 1124 OFFCURVE",
"236 1124 CURVE SMOOTH",
"155 1124 OFFCURVE",
"68 1029 OFFCURVE",
"68 940 CURVE SMOOTH",
"68 840 OFFCURVE",
"192 755 OFFCURVE",
"332 723 CURVE",
"267 714 OFFCURVE",
"217 701 OFFCURVE",
"181 686 CURVE SMOOTH",
"108 654 OFFCURVE",
"63 608 OFFCURVE",
"63 537 CURVE SMOOTH",
"63 434 OFFCURVE",
"142 342 OFFCURVE",
"223 342 CURVE SMOOTH",
"244 342 OFFCURVE",
"271 348 OFFCURVE",
"305 361 CURVE SMOOTH",
"373 386 OFFCURVE",
"395 400 OFFCURVE",
"492 469 CURVE",
"477 417 OFFCURVE",
"469 366 OFFCURVE",
"469 315 CURVE SMOOTH",
"469 186 OFFCURVE",
"526 121 OFFCURVE",
"641 121 CURVE SMOOTH"
);
},
{
closed = 1;
nodes = (
"202 475 OFFCURVE",
"186 493 OFFCURVE",
"186 509 CURVE SMOOTH",
"186 516 LINE SMOOTH",
"186 535 OFFCURVE",
"205 554 OFFCURVE",
"244 571 CURVE",
"262 577 OFFCURVE",
"317 591 OFFCURVE",
"408 614 CURVE",
"413 598 OFFCURVE",
"422 582 OFFCURVE",
"434 565 CURVE",
"363 522 OFFCURVE",
"253 475 OFFCURVE",
"225 475 CURVE SMOOTH"
);
},
{
closed = 1;
nodes = (
"611 236 OFFCURVE",
"596 262 OFFCURVE",
"596 315 CURVE SMOOTH",
"596 361 OFFCURVE",
"601 412 OFFCURVE",
"612 469 CURVE",
"670 469 LINE",
"682 401 OFFCURVE",
"688 349 OFFCURVE",
"688 313 CURVE SMOOTH",
"688 262 OFFCURVE",
"672 236 OFFCURVE",
"641 236 CURVE SMOOTH"
);
},
{
closed = 1;
nodes = (
"343 852 OFFCURVE",
"293 873 OFFCURVE",
"266 888 CURVE",
"238 902 OFFCURVE",
"219 914 OFFCURVE",
"209 924 CURVE",
"198 933 OFFCURVE",
"193 944 OFFCURVE",
"193 956 CURVE SMOOTH",
"193 979 OFFCURVE",
"211 993 OFFCURVE",
"231 993 CURVE SMOOTH",
"279 993 OFFCURVE",
"363 929 OFFCURVE",
"438 854 CURVE",
"429 845 OFFCURVE",
"422 835 OFFCURVE",
"416 823 CURVE"
);
},
{
closed = 1;
nodes = (
"573 586 OFFCURVE",
"520 638 OFFCURVE",
"520 707 CURVE SMOOTH",
"520 779 OFFCURVE",
"573 827 OFFCURVE",
"637 827 CURVE SMOOTH",
"706 827 OFFCURVE",
"762 776 OFFCURVE",
"762 707 CURVE SMOOTH",
"762 638 OFFCURVE",
"706 586 OFFCURVE",
"637 586 CURVE SMOOTH"
);
},
{
closed = 1;
nodes = (
"1026 475 OFFCURVE",
"941 513 OFFCURVE",
"852 573 CURVE",
"863 585 OFFCURVE",
"872 598 OFFCURVE",
"879 612 CURVE",
"957 594 OFFCURVE",
"1011 580 OFFCURVE",
"1042 571 CURVE",
"1073 556 OFFCURVE",
"1098 541 OFFCURVE",
"1098 516 CURVE SMOOTH",
"1098 489 OFFCURVE",
"1077 475 OFFCURVE",
"1061 475 CURVE SMOOTH"
);
},
{
closed = 1;
nodes = (
"603 1024 OFFCURVE",
"596 1083 OFFCURVE",
"596 1124 CURVE SMOOTH",
"596 1179 OFFCURVE",
"611 1206 OFFCURVE",
"641 1206 CURVE SMOOTH",
"672 1206 OFFCURVE",
"688 1179 OFFCURVE",
"688 1126 CURVE SMOOTH",
"688 1076 OFFCURVE",
"680 1016 OFFCURVE",
"664 946 CURVE",
"652 948 LINE",
"637 948 LINE",
"616 946 LINE"
);
},
{
closed = 1;
nodes = (
"864 834 OFFCURVE",
"853 849 OFFCURVE",
"840 862 CURVE",
"912 923 OFFCURVE",
"1007 993 OFFCURVE",
"1055 993 CURVE SMOOTH",
"1074 993 OFFCURVE",
"1092 979 OFFCURVE",
"1092 956 CURVE SMOOTH",
"1092 935 OFFCURVE",
"1071 914 OFFCURVE",
"1029 891 CURVE SMOOTH",
"987 868 OFFCURVE",
"935 843 OFFCURVE",
"872 817 CURVE"
);
}
);
width = 1309;
}
);
note = uni2055;
unicode = 2055;
},
{
glyphname = hyphentwo;
lastChange = "2016-11-10 14:46:36 +0000";
layers = (
{
layerId = "96E79A57-6EA7-45C5-8AEB-CCA87A3E1305";
paths = (
{
closed = 1;
nodes = (
"578 469 LINE",
"578 629 LINE",
"82 629 LINE",
"82 469 LINE"
);
}
);
width = 659;
}
);
note = uni2010;
unicode = 2010;
},
{
glyphname = nonbreakinghyphen;
lastChange = "2016-11-10 14:46:36 +0000";
layers = (
{
layerId = "96E79A57-6EA7-45C5-8AEB-CCA87A3E1305";
paths = (
{
closed = 1;
nodes = (
"578 469 LINE",
"578 629 LINE",
"82 629 LINE",
"82 469 LINE"
);
}
);
width = 659;
}
);
note = uni2011;
unicode = 2011;
},
{
glyphname = "danda-deva";
lastChange = "2016-11-10 14:46:36 +0000";
layers = (
{
layerId = "96E79A57-6EA7-45C5-8AEB-CCA87A3E1305";
paths = (
{
closed = 1;
nodes = (
"563 0 LINE",
"563 1274 LINE",
"398 1274 LINE",
"398 0 LINE"
);
}
);
width = 776;
}
);
note = uni0964;
unicode = 0964;
},
{
glyphname = "dbldanda-deva";
lastChange = "2016-11-10 14:46:36 +0000";
layers = (
{
layerId = "96E79A57-6EA7-45C5-8AEB-CCA87A3E1305";
paths = (
{
closed = 1;
nodes = (
"1013 0 LINE",
"1013 1274 LINE",
"848 1274 LINE",
"848 0 LINE"
);
},
{
closed = 1;
nodes = (
"563 0 LINE",
"563 1274 LINE",
"398 1274 LINE",
"398 0 LINE"
);
}
);
width = 1226;
}
);
note = uni0965;
unicode = 0965;
},
{
glyphname = zerowidthjoiner;
lastChange = "2016-11-10 14:46:36 +0000";
layers = (
{
layerId = "96E79A57-6EA7-45C5-8AEB-CCA87A3E1305";
paths = (
{
closed = 1;
nodes = (
"36 183 LINE",
"36 1368 LINE",
"170 1232 LINE",
"219 1281 LINE",
"48 1450 LINE",
"219 1618 LINE",
"170 1667 LINE",
"0 1496 LINE",
"-170 1667 LINE",
"-219 1618 LINE",
"-48 1450 LINE",
"-219 1281 LINE",
"-170 1232 LINE",
"-36 1368 LINE",
"-36 183 LINE"
);
}
);
width = 0;
}
);
note = afii301;
unicode = 200D;
},
{
glyphname = zerowidthnonjoiner;
lastChange = "2016-11-10 14:46:36 +0000";
layers = (
{
layerId = "96E79A57-6EA7-45C5-8AEB-CCA87A3E1305";
paths = (
{
closed = 1;
nodes = (
"36 183 LINE",
"36 1667 LINE",
"-36 1667 LINE",
"-36 183 LINE"
);
}
);
width = 0;
}
);
note = afii61664;
unicode = 200C;
},
{
glyphname = .notdef;
lastChange = "2016-11-10 14:46:36 +0000";
layers = (
{
layerId = "96E79A57-6EA7-45C5-8AEB-CCA87A3E1305";
paths = (
{
closed = 1;
nodes = (
"1034 0 LINE",
"1034 1462 LINE",
"193 1462 LINE",
"193 0 LINE"
);
},
{
closed = 1;
nodes = (
"297 1358 LINE",
"930 1358 LINE",
"930 104 LINE",
"297 104 LINE"
);
}
);
width = 1229;
}
);
note = .notdef;
},
{
glyphname = dottedCircle;
lastChange = "2016-11-10 14:46:36 +0000";
layers = (
{
layerId = "96E79A57-6EA7-45C5-8AEB-CCA87A3E1305";
paths = (
{
closed = 1;
nodes = (
"324 864 OFFCURVE",
"342 882 OFFCURVE",
"342 918 CURVE SMOOTH",
"342 955 OFFCURVE",
"324 973 OFFCURVE",
"287 973 CURVE SMOOTH",
"251 973 OFFCURVE",
"233 954 OFFCURVE",
"233 915 CURVE SMOOTH",
"233 881 OFFCURVE",
"251 864 OFFCURVE",
"287 864 CURVE SMOOTH"
);
},
{
closed = 1;
nodes = (
"324 219 OFFCURVE",
"342 237 OFFCURVE",
"342 272 CURVE SMOOTH",
"342 309 OFFCURVE",
"324 328 OFFCURVE",
"287 328 CURVE SMOOTH",
"251 328 OFFCURVE",
"233 309 OFFCURVE",
"233 272 CURVE SMOOTH",
"233 237 OFFCURVE",
"251 219 OFFCURVE",
"287 219 CURVE SMOOTH"
);
},
{
closed = 1;
nodes = (
"224 369 OFFCURVE",
"242 387 OFFCURVE",
"242 422 CURVE SMOOTH",
"242 459 OFFCURVE",
"224 477 OFFCURVE",
"188 477 CURVE SMOOTH",
"151 477 OFFCURVE",
"133 459 OFFCURVE",
"133 422 CURVE SMOOTH",
"133 387 OFFCURVE",
"151 369 OFFCURVE",
"188 369 CURVE SMOOTH"
);
},
{
closed = 1;
nodes = (
"471 123 OFFCURVE",
"489 141 OFFCURVE",
"489 178 CURVE SMOOTH",
"489 212 OFFCURVE",
"471 229 OFFCURVE",
"434 229 CURVE SMOOTH",
"399 229 OFFCURVE",
"381 211 OFFCURVE",
"381 174 CURVE SMOOTH",
"381 140 OFFCURVE",
"399 123 OFFCURVE",
"434 123 CURVE SMOOTH"
);
},
{
closed = 1;
nodes = (
"189 543 OFFCURVE",
"207 561 OFFCURVE",
"207 596 CURVE SMOOTH",
"207 631 OFFCURVE",
"189 649 OFFCURVE",
"154 649 CURVE SMOOTH",
"117 649 OFFCURVE",
"98 631 OFFCURVE",
"98 596 CURVE SMOOTH",
"98 561 OFFCURVE",
"117 543 OFFCURVE",
"154 543 CURVE SMOOTH"
);
},
{
closed = 1;
nodes = (
"644 86 OFFCURVE",
"662 104 OFFCURVE",
"662 141 CURVE SMOOTH",
"662 177 OFFCURVE",
"644 195 OFFCURVE",
"608 195 CURVE SMOOTH",
"573 195 OFFCURVE",
"555 177 OFFCURVE",
"555 141 CURVE SMOOTH",
"555 104 OFFCURVE",
"573 86 OFFCURVE",
"608 86 CURVE SMOOTH"
);
},
{
closed = 1;
nodes = (
"225 715 OFFCURVE",
"242 733 OFFCURVE",
"242 770 CURVE SMOOTH",
"242 805 OFFCURVE",
"224 823 OFFCURVE",
"188 823 CURVE SMOOTH",
"151 823 OFFCURVE",
"133 805 OFFCURVE",
"133 770 CURVE SMOOTH",
"133 733 OFFCURVE",
"152 715 OFFCURVE",
"190 715 CURVE SMOOTH"
);
},
{
closed = 1;
nodes = (
"819 123 OFFCURVE",
"836 140 OFFCURVE",
"836 174 CURVE SMOOTH",
"836 211 OFFCURVE",
"819 229 OFFCURVE",
"784 229 CURVE SMOOTH",
"746 229 OFFCURVE",
"727 211 OFFCURVE",
"727 174 CURVE SMOOTH",
"727 140 OFFCURVE",
"746 123 OFFCURVE",
"784 123 CURVE SMOOTH"
);
},
{
closed = 1;
nodes = (
"966 219 OFFCURVE",
"983 237 OFFCURVE",
"983 272 CURVE SMOOTH",
"983 309 OFFCURVE",
"966 328 OFFCURVE",
"932 328 CURVE SMOOTH",
"895 328 OFFCURVE",
"877 309 OFFCURVE",
"877 272 CURVE SMOOTH",
"877 237 OFFCURVE",
"895 219 OFFCURVE",
"932 219 CURVE SMOOTH"
);
},
{
closed = 1;
nodes = (
"471 963 OFFCURVE",
"489 981 OFFCURVE",
"489 1016 CURVE SMOOTH",
"489 1053 OFFCURVE",
"471 1071 OFFCURVE",
"434 1071 CURVE SMOOTH",
"399 1071 OFFCURVE",
"381 1053 OFFCURVE",
"381 1016 CURVE SMOOTH",
"381 981 OFFCURVE",
"399 963 OFFCURVE",
"434 963 CURVE SMOOTH"
);
},
{
closed = 1;
nodes = (
"1065 369 OFFCURVE",
"1083 387 OFFCURVE",
"1083 422 CURVE SMOOTH",
"1083 459 OFFCURVE",
"1065 477 OFFCURVE",
"1028 477 CURVE SMOOTH",
"993 477 OFFCURVE",
"975 459 OFFCURVE",
"975 422 CURVE SMOOTH",
"975 387 OFFCURVE",
"993 369 OFFCURVE",
"1028 369 CURVE SMOOTH"
);
},
{
closed = 1;
nodes = (
"644 997 OFFCURVE",
"662 1016 OFFCURVE",
"662 1053 CURVE SMOOTH",
"662 1088 OFFCURVE",
"644 1106 OFFCURVE",
"608 1106 CURVE SMOOTH",
"573 1106 OFFCURVE",
"555 1088 OFFCURVE",
"555 1053 CURVE SMOOTH",
"555 1016 OFFCURVE",
"573 997 OFFCURVE",
"608 997 CURVE SMOOTH"
);
},
{
closed = 1;
nodes = (
"1101 543 OFFCURVE",
"1118 561 OFFCURVE",
"1118 596 CURVE SMOOTH",
"1118 631 OFFCURVE",
"1101 649 OFFCURVE",
"1067 649 CURVE SMOOTH",
"1030 649 OFFCURVE",
"1012 631 OFFCURVE",
"1012 596 CURVE SMOOTH",
"1012 561 OFFCURVE",
"1030 543 OFFCURVE",
"1067 543 CURVE SMOOTH"
);
},
{
closed = 1;
nodes = (
"1065 715 OFFCURVE",
"1083 733 OFFCURVE",
"1083 770 CURVE SMOOTH",
"1083 805 OFFCURVE",
"1065 823 OFFCURVE",
"1030 823 CURVE SMOOTH",
"993 823 OFFCURVE",
"975 805 OFFCURVE",
"975 770 CURVE SMOOTH",
"975 733 OFFCURVE",
"993 715 OFFCURVE",
"1028 715 CURVE SMOOTH"
);
},
{
closed = 1;
nodes = (
"819 963 OFFCURVE",
"836 981 OFFCURVE",
"836 1016 CURVE SMOOTH",
"836 1053 OFFCURVE",
"819 1071 OFFCURVE",
"784 1071 CURVE SMOOTH",
"746 1071 OFFCURVE",
"727 1053 OFFCURVE",
"727 1016 CURVE SMOOTH",
"727 981 OFFCURVE",
"746 963 OFFCURVE",
"784 963 CURVE SMOOTH"
);
},
{
closed = 1;
nodes = (
"966 864 OFFCURVE",
"983 882 OFFCURVE",
"983 918 CURVE SMOOTH",
"983 955 OFFCURVE",
"966 973 OFFCURVE",
"932 973 CURVE SMOOTH",
"895 973 OFFCURVE",
"877 955 OFFCURVE",
"877 918 CURVE SMOOTH",
"877 882 OFFCURVE",
"895 864 OFFCURVE",
"932 864 CURVE SMOOTH"
);
}
);
width = 1217;
}
);
note = uni25CC;
unicode = 25CC;
},
{
glyphname = uniA800;
lastChange = "2016-11-10 14:46:32 +0000";
layers = (
{
layerId = "96E79A57-6EA7-45C5-8AEB-CCA87A3E1305";
paths = (
{
closed = 1;
nodes = (
"1522 0 LINE",
"1522 1251 LINE",
"1671 1251 LINE",
"1671 1391 LINE",
"-35 1391 LINE",
"-35 1251 LINE",
"1356 1251 LINE",
"975 797 OFFCURVE",
"756 538 OFFCURVE",
"700 474 CURVE SMOOTH",
"588 345 OFFCURVE",
"518 272 OFFCURVE",
"466 228 CURVE SMOOTH",
"413 184 OFFCURVE",
"372 166 OFFCURVE",
"336 166 CURVE SMOOTH",
"284 166 OFFCURVE",
"254 194 OFFCURVE",
"221 285 CURVE",
"76 217 LINE",
"124 76 OFFCURVE",
"201 8 OFFCURVE",
"322 8 CURVE SMOOTH",
"450 8 OFFCURVE",
"560 78 OFFCURVE",
"728 265 CURVE SMOOTH",
"812 358 OFFCURVE",
"931 502 OFFCURVE",
"1086 695 CURVE SMOOTH",
"1362 1036 LINE",
"1368 1034 LINE",
"1368 0 LINE"
);
}
);
width = 1655;
}
);
note = uniA800;
unicode = A800;
},
{
glyphname = uniA801;
lastChange = "2016-11-10 14:46:32 +0000";
layers = (
{
layerId = "96E79A57-6EA7-45C5-8AEB-CCA87A3E1305";
paths = (
{
closed = 1;
nodes = (
"934 57 LINE",
"890 122 OFFCURVE",
"842 178 OFFCURVE",
"791 224 CURVE SMOOTH",
"687 316 OFFCURVE",
"589 373 OFFCURVE",
"385 444 CURVE",
"387 453 LINE",
"688 453 OFFCURVE",
"907 611 OFFCURVE",
"907 840 CURVE SMOOTH",
"907 991 OFFCURVE",
"808 1092 OFFCURVE",
"668 1092 CURVE SMOOTH",
"564 1092 OFFCURVE",
"493 1058 OFFCURVE",
"410 989 CURVE",
"410 1251 LINE",
"1077 1251 LINE",
"1077 1391 LINE",
"-35 1391 LINE",
"-35 1251 LINE",
"250 1251 LINE",
"250 813 LINE",
"365 766 LINE",
"430 879 OFFCURVE",
"538 956 OFFCURVE",
"625 956 CURVE SMOOTH",
"709 956 OFFCURVE",
"752 910 OFFCURVE",
"752 827 CURVE SMOOTH",
"752 668 OFFCURVE",
"564 561 OFFCURVE",
"303 561 CURVE SMOOTH",
"260 561 OFFCURVE",
"212 564 OFFCURVE",
"160 571 CURVE",
"137 420 LINE",
"229 393 LINE SMOOTH",
"473 320 OFFCURVE",
"669 178 OFFCURVE",
"809 -29 CURVE"
);
}
);
width = 1053;
}
);
note = uniA801;
unicode = A801;
},
{
glyphname = uniA802;
lastChange = "2016-11-10 14:46:32 +0000";
layers = (
{
layerId = "96E79A57-6EA7-45C5-8AEB-CCA87A3E1305";
paths = (
{
closed = 1;
nodes = (
"-481 1575 LINE",
"-813 1939 LINE",
"-924 1839 LINE",
"-571 1487 LINE"
);
},
{
closed = 1;
nodes = (
"-254 1571 LINE",
"-508 1997 LINE",
"-637 1915 LINE",
"-360 1503 LINE"
);
}
);
width = 0;
}
);
note = uniA802;
unicode = A802;
},
{
glyphname = uniA803;
lastChange = "2016-11-10 14:46:32 +0000";
layers = (
{
layerId = "96E79A57-6EA7-45C5-8AEB-CCA87A3E1305";
paths = (
{
closed = 1;
nodes = (
"889 0 OFFCURVE",
"991 17 OFFCURVE",
"1084 52 CURVE SMOOTH",
"1269 121 OFFCURVE",
"1364 247 OFFCURVE",
"1364 408 CURVE SMOOTH",
"1364 596 OFFCURVE",
"1256 711 OFFCURVE",
"1079 711 CURVE",
"1147 754 OFFCURVE",
"1182 823 OFFCURVE",
"1182 891 CURVE SMOOTH",
"1182 946 OFFCURVE",
"1170 992 OFFCURVE",
"1146 1030 CURVE SMOOTH",
"1098 1105 OFFCURVE",
"1013 1147 OFFCURVE",
"913 1147 CURVE SMOOTH",
"861 1147 OFFCURVE",
"811 1136 OFFCURVE",
"764 1114 CURVE SMOOTH",
"669 1070 OFFCURVE",
"610 990 OFFCURVE",
"610 891 CURVE SMOOTH",
"610 864 OFFCURVE",
"614 837 OFFCURVE",
"623 809 CURVE",
"778 844 LINE",
"774 860 OFFCURVE",
"772 876 OFFCURVE",
"772 891 CURVE SMOOTH",
"772 963 OFFCURVE",
"832 1010 OFFCURVE",
"903 1010 CURVE SMOOTH",
"982 1010 OFFCURVE",
"1028 962 OFFCURVE",
"1028 887 CURVE SMOOTH",
"1028 799 OFFCURVE",
"966 756 OFFCURVE",
"809 715 CURVE",
"854 569 LINE",
"907 590 OFFCURVE",
"983 604 OFFCURVE",
"1024 604 CURVE SMOOTH",
"1136 604 OFFCURVE",
"1206 530 OFFCURVE",
"1206 410 CURVE SMOOTH",
"1206 359 OFFCURVE",
"1189 314 OFFCURVE",
"1156 276 CURVE SMOOTH",
"1089 199 OFFCURVE",
"944 152 OFFCURVE",
"776 152 CURVE SMOOTH",
"676 152 OFFCURVE",
"588 172 OFFCURVE",
"511 212 CURVE SMOOTH",
"357 291 OFFCURVE",
"268 443 OFFCURVE",
"268 643 CURVE SMOOTH",
"268 866 OFFCURVE",
"380 1068 OFFCURVE",
"604 1251 CURVE",
"1509 1251 LINE",
"1509 1391 LINE",
"-14 1391 LINE",
"-14 1251 LINE",
"391 1251 LINE",
"203 1063 OFFCURVE",
"109 860 OFFCURVE",
"109 643 CURVE SMOOTH",
"109 518 OFFCURVE",
"137 407 OFFCURVE",
"192 312 CURVE SMOOTH",
"302 121 OFFCURVE",
"529 0 OFFCURVE",
"778 0 CURVE SMOOTH"
);
}
);
width = 1487;
}
);
note = uniA803;
unicode = A803;
},
{
glyphname = uniA804;
lastChange = "2016-11-10 14:46:32 +0000";
layers = (
{
layerId = "96E79A57-6EA7-45C5-8AEB-CCA87A3E1305";
paths = (
{
closed = 1;
nodes = (
"630 -16 OFFCURVE",
"710 6 OFFCURVE",
"813 57 CURVE",
"739 190 LINE",
"664 148 OFFCURVE",
"595 127 OFFCURVE",
"530 127 CURVE SMOOTH",
"406 127 OFFCURVE",
"340 220 OFFCURVE",
"340 383 CURVE SMOOTH",
"340 485 LINE",
"501 485 OFFCURVE",
"628 511 OFFCURVE",
"721 563 CURVE SMOOTH",
"905 666 OFFCURVE",
"989 878 OFFCURVE",
"989 1251 CURVE",
"1184 1251 LINE",
"1184 1391 LINE",
"979 1391 LINE",
"966 1547 OFFCURVE",
"906 1664 OFFCURVE",
"811 1746 CURVE SMOOTH",
"716 1828 OFFCURVE",
"578 1881 OFFCURVE",
"319 1909 CURVE",
"293 1778 LINE",
"400 1761 OFFCURVE",
"476 1746 OFFCURVE",
"520 1734 CURVE SMOOTH",
"607 1709 OFFCURVE",
"679 1676 OFFCURVE",
"733 1622 CURVE SMOOTH",
"787 1568 OFFCURVE",
"823 1494 OFFCURVE",
"834 1391 CURVE",
"-35 1391 LINE",
"-35 1251 LINE",
"184 1251 LINE",
"184 383 LINE SMOOTH",
"184 135 OFFCURVE",
"309 -16 OFFCURVE",
"530 -16 CURVE SMOOTH"
);
},
{
closed = 1;
nodes = (
"340 1251 LINE",
"836 1251 LINE",
"836 1094 OFFCURVE",
"820 971 OFFCURVE",
"787 882 CURVE SMOOTH",
"722 703 OFFCURVE",
"593 627 OFFCURVE",
"340 627 CURVE"
);
}
);
width = 1161;
}
);
note = uniA804;
unicode = A804;
},
{
glyphname = uniA805;
lastChange = "2016-11-10 14:46:32 +0000";
layers = (
{
layerId = "96E79A57-6EA7-45C5-8AEB-CCA87A3E1305";
paths = (
{
closed = 1;
nodes = (
"1053 0 LINE",
"1053 1251 LINE",
"1249 1251 LINE",
"1249 1391 LINE",
"-35 1391 LINE",
"-35 1251 LINE",
"897 1251 LINE",
"897 987 LINE",
"798 1052 OFFCURVE",
"691 1085 OFFCURVE",
"575 1085 CURVE SMOOTH",
"287 1085 OFFCURVE",
"121 939 OFFCURVE",
"121 682 CURVE SMOOTH",
"121 414 OFFCURVE",
"279 279 OFFCURVE",
"580 279 CURVE SMOOTH",
"701 279 OFFCURVE",
"806 312 OFFCURVE",
"897 379 CURVE",
"897 0 LINE"
);
},
{
closed = 1;
nodes = (
"351 -18 OFFCURVE",
"397 24 OFFCURVE",
"397 100 CURVE SMOOTH",
"397 175 OFFCURVE",
"351 215 OFFCURVE",
"276 215 CURVE SMOOTH",
"200 215 OFFCURVE",
"156 175 OFFCURVE",
"156 100 CURVE SMOOTH",
"156 24 OFFCURVE",
"200 -18 OFFCURVE",
"276 -18 CURVE SMOOTH"
);
},
{
closed = 1;
nodes = (
"387 426 OFFCURVE",
"289 511 OFFCURVE",
"289 682 CURVE SMOOTH",
"289 854 OFFCURVE",
"391 940 OFFCURVE",
"596 940 CURVE SMOOTH",
"702 940 OFFCURVE",
"802 907 OFFCURVE",
"897 842 CURVE",
"897 551 LINE",
"805 468 OFFCURVE",
"701 426 OFFCURVE",
"584 426 CURVE SMOOTH"
);
}
);
width = 1223;
}
);
note = uniA805;
unicode = A805;
},
{
glyphname = uniA806;
lastChange = "2016-11-10 14:40:34 +0000";
layers = (
{
layerId = "96E79A57-6EA7-45C5-8AEB-CCA87A3E1305";
paths = (
{
closed = 1;
nodes = (
"-428 1798 LINE",
"-195 1546 LINE",
"-86 1649 LINE",
"-430 1980 LINE",
"-754 1649 LINE",
"-643 1546 LINE"
);
}
);
width = 0;
}
);
note = uniA806;
unicode = A806;
},
{
glyphname = uniA807;
lastChange = "2016-11-10 14:46:32 +0000";
layers = (
{
layerId = "96E79A57-6EA7-45C5-8AEB-CCA87A3E1305";
paths = (
{
closed = 1;
nodes = (
"983 0 LINE",
"983 750 LINE",
"1159 879 OFFCURVE",
"1342 986 OFFCURVE",
"1532 1071 CURVE",
"1538 1069 LINE",
"1538 0 LINE",
"1694 0 LINE",
"1694 1251 LINE",
"1847 1251 LINE",
"1847 1391 LINE",
"-35 1391 LINE",
"-35 1251 LINE",
"178 1251 LINE",
"178 195 LINE",
"326 127 LINE",
"492 321 OFFCURVE",
"660 488 OFFCURVE",
"829 629 CURVE",
"829 0 LINE"
);
},
{
closed = 1;
nodes = (
"336 389 LINE",
"336 1251 LINE",
"829 1251 LINE",
"829 825 LINE",
"648 686 OFFCURVE",
"486 540 OFFCURVE",
"344 387 CURVE"
);
},
{
closed = 1;
nodes = (
"983 1251 LINE",
"1542 1251 LINE",
"1331 1149 OFFCURVE",
"1144 1043 OFFCURVE",
"983 934 CURVE"
);
}
);
width = 1835;
}
);
note = uniA807;
unicode = A807;
},
{
glyphname = uniA808;
lastChange = "2016-11-10 14:46:32 +0000";
layers = (
{
layerId = "96E79A57-6EA7-45C5-8AEB-CCA87A3E1305";
paths = (
{
closed = 1;
nodes = (
"1815 0 LINE",
"1815 1251 LINE",
"1989 1251 LINE",
"1989 1391 LINE",
"-35 1391 LINE",
"-35 1251 LINE",
"139 1251 LINE",
"139 483 LINE",
"301 418 LINE",
"472 691 OFFCURVE",
"663 924 OFFCURVE",
"874 1116 CURVE",
"881 1114 LINE",
"881 483 LINE",
"1044 418 LINE",
"1221 703 OFFCURVE",
"1424 946 OFFCURVE",
"1653 1147 CURVE",
"1659 1143 LINE",
"1659 0 LINE"
);
},
{
closed = 1;
nodes = (
"295 698 LINE",
"295 1251 LINE",
"819 1251 LINE",
"616 1083 OFFCURVE",
"458 911 OFFCURVE",
"303 696 CURVE"
);
},
{
closed = 1;
nodes = (
"1038 698 LINE",
"1038 1251 LINE",
"1561 1251 LINE",
"1353 1078 OFFCURVE",
"1203 913 OFFCURVE",
"1047 696 CURVE"
);
}
);
width = 1970;
}
);
note = uniA808;
unicode = A808;
},
{
glyphname = uniA809;
lastChange = "2016-11-10 14:46:32 +0000";
layers = (
{
layerId = "96E79A57-6EA7-45C5-8AEB-CCA87A3E1305";
paths = (
{
closed = 1;
nodes = (
"1186 0 LINE",
"1186 1251 LINE",
"1378 1251 LINE",
"1378 1391 LINE",
"-35 1391 LINE",
"-35 1251 LINE",
"332 1251 LINE",
"408 1178 OFFCURVE",
"481 1077 OFFCURVE",
"551 950 CURVE",
"260 874 OFFCURVE",
"115 754 OFFCURVE",
"115 590 CURVE SMOOTH",
"115 526 OFFCURVE",
"129 469 OFFCURVE",
"157 419 CURVE SMOOTH",
"213 319 OFFCURVE",
"318 262 OFFCURVE",
"438 262 CURVE SMOOTH",
"641 262 OFFCURVE",
"780 414 OFFCURVE",
"780 647 CURVE SMOOTH",
"780 832 OFFCURVE",
"692 1033 OFFCURVE",
"516 1251 CURVE",
"1030 1251 LINE",
"1030 0 LINE"
);
},
{
closed = 1;
nodes = (
"336 401 OFFCURVE",
"274 468 OFFCURVE",
"274 565 CURVE SMOOTH",
"274 684 OFFCURVE",
"389 770 OFFCURVE",
"600 815 CURVE",
"615 755 OFFCURVE",
"623 698 OFFCURVE",
"623 643 CURVE SMOOTH",
"623 594 OFFCURVE",
"613 551 OFFCURVE",
"594 514 CURVE SMOOTH",
"555 441 OFFCURVE",
"492 401 OFFCURVE",
"424 401 CURVE SMOOTH"
);
}
);
width = 1352;
}
);
note = uniA809;
unicode = A809;
},
{
glyphname = uniA80A;
lastChange = "2016-11-10 14:46:32 +0000";
layers = (
{
layerId = "96E79A57-6EA7-45C5-8AEB-CCA87A3E1305";
paths = (
{
closed = 1;
nodes = (
"1077 0 LINE",
"1077 1251 LINE",
"1276 1251 LINE",
"1276 1391 LINE",
"-35 1391 LINE",
"-35 1251 LINE",
"922 1251 LINE",
"922 1137 LINE",
"879 1137 LINE SMOOTH",
"522 1137 OFFCURVE",
"339 1070 OFFCURVE",
"156 887 CURVE",
"209 788 OFFCURVE",
"326 693 OFFCURVE",
"453 637 CURVE",
"314 593 OFFCURVE",
"168 499 OFFCURVE",
"100 414 CURVE",
"276 202 OFFCURVE",
"508 117 OFFCURVE",
"889 117 CURVE SMOOTH",
"922 117 LINE",
"922 0 LINE"
);
},
{
closed = 1;
nodes = (
"582 262 OFFCURVE",
"402 311 OFFCURVE",
"289 408 CURVE",
"441 521 OFFCURVE",
"580 557 OFFCURVE",
"776 557 CURVE SMOOTH",
"805 557 OFFCURVE",
"854 555 OFFCURVE",
"922 551 CURVE",
"922 264 LINE",
"875 262 LINE",
"829 262 LINE SMOOTH"
);
},
{
closed = 1;
nodes = (
"605 702 OFFCURVE",
"483 741 OFFCURVE",
"354 860 CURVE",
"481 965 OFFCURVE",
"599 995 OFFCURVE",
"811 995 CURVE SMOOTH",
"865 995 LINE",
"922 993 LINE",
"922 705 LINE",
"896 703 OFFCURVE",
"847 702 OFFCURVE",
"774 702 CURVE SMOOTH"
);
}
);
width = 1255;
}
);
note = uniA80A;
unicode = A80A;
},
{
glyphname = uniA80B;
lastChange = "2016-11-10 14:46:32 +0000";
layers = (
{
layerId = "96E79A57-6EA7-45C5-8AEB-CCA87A3E1305";
paths = (
{
closed = 1;
nodes = (
"-184 1530 OFFCURVE",
"-76 1623 OFFCURVE",
"-76 1751 CURVE SMOOTH",
"-76 1876 OFFCURVE",
"-180 1972 OFFCURVE",
"-315 1972 CURVE SMOOTH",
"-448 1972 OFFCURVE",
"-551 1876 OFFCURVE",
"-551 1751 CURVE SMOOTH",
"-551 1624 OFFCURVE",
"-444 1530 OFFCURVE",
"-315 1530 CURVE SMOOTH"
);
},
{
closed = 1;
nodes = (
"-374 1655 OFFCURVE",
"-418 1699 OFFCURVE",
"-418 1751 CURVE SMOOTH",
"-418 1804 OFFCURVE",
"-374 1847 OFFCURVE",
"-317 1847 CURVE SMOOTH",
"-256 1847 OFFCURVE",
"-213 1804 OFFCURVE",
"-213 1751 CURVE SMOOTH",
"-213 1698 OFFCURVE",
"-256 1655 OFFCURVE",
"-317 1655 CURVE SMOOTH"
);
}
);
width = 0;
}
);
note = uniA80B;
unicode = A80B;
},
{
glyphname = uniA80C;
lastChange = "2016-11-10 14:46:32 +0000";
layers = (
{
layerId = "96E79A57-6EA7-45C5-8AEB-CCA87A3E1305";
paths = (
{
closed = 1;
nodes = (
"1057 0 LINE",
"1057 1251 LINE",
"1255 1251 LINE",
"1255 1391 LINE",
"-35 1391 LINE",
"-35 1251 LINE",
"901 1251 LINE",
"901 1055 LINE",
"858 1055 LINE SMOOTH",
"561 1055 OFFCURVE",
"347 970 OFFCURVE",
"92 715 CURVE",
"273 456 OFFCURVE",
"526 336 OFFCURVE",
"901 324 CURVE",
"901 0 LINE"
);
},
{
closed = 1;
nodes = (
"625 477 OFFCURVE",
"433 549 OFFCURVE",
"291 694 CURVE",
"363 757 OFFCURVE",
"422 801 OFFCURVE",
"467 827 CURVE SMOOTH",
"557 878 OFFCURVE",
"660 909 OFFCURVE",
"791 909 CURVE SMOOTH",
"845 909 LINE",
"901 907 LINE",
"901 477 LINE",
"868 477 LINE SMOOTH"
);
}
);
width = 1235;
}
);
note = uniA80C;
unicode = A80C;
},
{
glyphname = uniA80D;
lastChange = "2016-11-10 14:46:32 +0000";
layers = (
{
layerId = "96E79A57-6EA7-45C5-8AEB-CCA87A3E1305";
paths = (
{
closed = 1;
nodes = (
"597 -102 OFFCURVE",
"711 61 OFFCURVE",
"872 186 CURVE",
"872 94 LINE SMOOTH",
"872 27 OFFCURVE",
"879 -24 OFFCURVE",
"894 -58 CURVE SMOOTH",
"922 -126 OFFCURVE",
"983 -168 OFFCURVE",
"1090 -168 CURVE SMOOTH",
"1142 -168 OFFCURVE",
"1193 -152 OFFCURVE",
"1242 -120 CURVE SMOOTH",
"1340 -57 OFFCURVE",
"1419 65 OFFCURVE",
"1419 164 CURVE SMOOTH",
"1419 316 OFFCURVE",
"1314 399 OFFCURVE",
"1126 399 CURVE SMOOTH",
"1099 399 OFFCURVE",
"1065 394 OFFCURVE",
"1024 385 CURVE",
"1024 936 LINE",
"852 1004 LINE",
"739 923 OFFCURVE",
"666 869 OFFCURVE",
"633 842 CURVE SMOOTH",
"600 815 OFFCURVE",
"569 789 OFFCURVE",
"540 762 CURVE SMOOTH",
"481 709 OFFCURVE",
"419 644 OFFCURVE",
"344 563 CURVE",
"336 565 LINE",
"336 1251 LINE",
"1530 1251 LINE",
"1530 1391 LINE",
"-35 1391 LINE",
"-35 1251 LINE",
"178 1251 LINE",
"178 360 LINE",
"342 293 LINE",
"393 375 OFFCURVE",
"446 448 OFFCURVE",
"502 512 CURVE SMOOTH",
"613 640 OFFCURVE",
"702 721 OFFCURVE",
"866 829 CURVE",
"872 827 LINE",
"872 340 LINE",
"657 223 OFFCURVE",
"476 6 OFFCURVE",
"391 -250 CURVE",
"530 -301 LINE"
);
},
{
closed = 1;
nodes = (
"1032 -25 OFFCURVE",
"1024 14 OFFCURVE",
"1024 90 CURVE SMOOTH",
"1024 258 LINE",
"1055 267 OFFCURVE",
"1087 272 OFFCURVE",
"1122 272 CURVE SMOOTH",
"1213 272 OFFCURVE",
"1264 231 OFFCURVE",
"1264 162 CURVE SMOOTH",
"1264 67 OFFCURVE",
"1184 -25 OFFCURVE",
"1092 -25 CURVE SMOOTH"
);
}
);
width = 1505;
}
);
note = uniA80D;
unicode = A80D;
},
{
glyphname = uniA80E;
lastChange = "2016-11-10 14:46:32 +0000";
layers = (
{
layerId = "96E79A57-6EA7-45C5-8AEB-CCA87A3E1305";
paths = (
{
closed = 1;
nodes = (
"1376 0 LINE",
"1376 1251 LINE",
"1556 1251 LINE",
"1556 1391 LINE",
"-27 1391 LINE",
"-27 1251 LINE",
"338 1251 LINE",
"170 1062 OFFCURVE",
"86 871 OFFCURVE",
"86 678 CURVE SMOOTH",
"86 578 OFFCURVE",
"104 490 OFFCURVE",
"140 414 CURVE SMOOTH",
"212 261 OFFCURVE",
"368 166 OFFCURVE",
"549 166 CURVE SMOOTH",
"804 166 OFFCURVE",
"967 302 OFFCURVE",
"967 522 CURVE SMOOTH",
"967 610 OFFCURVE",
"931 692 OFFCURVE",
"868 733 CURVE",
"870 739 LINE",
"1221 778 LINE",
"1221 0 LINE"
);
},
{
closed = 1;
nodes = (
"495 301 OFFCURVE",
"439 315 OFFCURVE",
"392 344 CURVE SMOOTH",
"297 401 OFFCURVE",
"240 513 OFFCURVE",
"240 678 CURVE SMOOTH",
"240 866 OFFCURVE",
"323 1042 OFFCURVE",
"532 1251 CURVE",
"1221 1251 LINE",
"1221 922 LINE",
"623 854 LINE",
"614 713 LINE",
"750 709 OFFCURVE",
"809 644 OFFCURVE",
"809 524 CURVE SMOOTH",
"809 389 OFFCURVE",
"708 301 OFFCURVE",
"559 301 CURVE SMOOTH"
);
}
);
width = 1534;
}
);
note = uniA80E;
unicode = A80E;
},
{
glyphname = uniA80F;
lastChange = "2016-11-10 14:46:32 +0000";
layers = (
{
layerId = "96E79A57-6EA7-45C5-8AEB-CCA87A3E1305";
paths = (
{
closed = 1;
nodes = (
"957 133 OFFCURVE",
"1069 162 OFFCURVE",
"1170 215 CURVE SMOOTH",
"1370 322 OFFCURVE",
"1493 512 OFFCURVE",
"1493 713 CURVE SMOOTH",
"1493 856 OFFCURVE",
"1447 972 OFFCURVE",
"1356 1061 CURVE",
"1253 961 LINE",
"1310 898 OFFCURVE",
"1339 818 OFFCURVE",
"1339 721 CURVE SMOOTH",
"1339 514 OFFCURVE",
"1204 349 OFFCURVE",
"991 293 CURVE",
"985 297 LINE",
"985 997 LINE",
"813 1065 LINE",
"744 1005 OFFCURVE",
"684 950 OFFCURVE",
"633 901 CURVE SMOOTH",
"532 801 OFFCURVE",
"468 728 OFFCURVE",
"344 541 CURVE",
"336 543 LINE",
"336 1251 LINE",
"1931 1251 LINE",
"1931 1391 LINE",
"-35 1391 LINE",
"-35 1251 LINE",
"178 1251 LINE",
"178 319 LINE",
"342 258 LINE",
"505 543 OFFCURVE",
"675 766 OFFCURVE",
"827 891 CURVE",
"834 889 LINE",
"834 129 LINE"
);
},
{
closed = 1;
nodes = (
"1651 192 OFFCURVE",
"1804 421 OFFCURVE",
"1804 680 CURVE SMOOTH",
"1804 827 OFFCURVE",
"1761 957 OFFCURVE",
"1675 1069 CURVE",
"1565 985 LINE",
"1626 893 OFFCURVE",
"1657 793 OFFCURVE",
"1657 686 CURVE SMOOTH",
"1657 479 OFFCURVE",
"1534 292 OFFCURVE",
"1317 180 CURVE",
"1384 63 LINE"
);
}
);
width = 1919;
}
);
note = uniA80F;
unicode = A80F;
},
{
glyphname = uniA810;
lastChange = "2016-11-10 14:46:32 +0000";
layers = (
{
layerId = "96E79A57-6EA7-45C5-8AEB-CCA87A3E1305";
paths = (
{
closed = 1;
nodes = (
"777 -12 OFFCURVE",
"924 115 OFFCURVE",
"924 324 CURVE SMOOTH",
"924 363 OFFCURVE",
"921 399 OFFCURVE",
"915 434 CURVE",
"756 412 LINE",
"761 391 OFFCURVE",
"764 365 OFFCURVE",
"764 334 CURVE SMOOTH",
"764 209 OFFCURVE",
"670 125 OFFCURVE",
"530 125 CURVE SMOOTH",
"385 125 OFFCURVE",
"299 203 OFFCURVE",
"299 338 CURVE SMOOTH",
"299 458 OFFCURVE",
"372 525 OFFCURVE",
"592 621 CURVE SMOOTH",
"821 724 OFFCURVE",
"920 850 OFFCURVE",
"920 1014 CURVE SMOOTH",
"920 1113 OFFCURVE",
"887 1192 OFFCURVE",
"821 1251 CURVE",
"1141 1251 LINE",
"1141 1391 LINE",
"-35 1391 LINE",
"-35 1251 LINE",
"281 1251 LINE",
"206 1187 OFFCURVE",
"170 1099 OFFCURVE",
"170 1012 CURVE SMOOTH",
"170 960 OFFCURVE",
"179 912 OFFCURVE",
"197 868 CURVE",
"346 913 LINE",
"334 950 OFFCURVE",
"328 984 OFFCURVE",
"328 1016 CURVE SMOOTH",
"328 1148 OFFCURVE",
"424 1233 OFFCURVE",
"559 1233 CURVE SMOOTH",
"687 1233 OFFCURVE",
"770 1151 OFFCURVE",
"770 1026 CURVE SMOOTH",
"770 915 OFFCURVE",
"685 820 OFFCURVE",
"514 741 CURVE SMOOTH",
"410 692 OFFCURVE",
"334 650 OFFCURVE",
"286 613 CURVE SMOOTH",
"189 539 OFFCURVE",
"139 451 OFFCURVE",
"139 342 CURVE SMOOTH",
"139 273 OFFCURVE",
"155 212 OFFCURVE",
"187 159 CURVE SMOOTH",
"251 51 OFFCURVE",
"373 -12 OFFCURVE",
"530 -12 CURVE SMOOTH"
);
}
);
width = 1112;
}
);
note = uniA810;
unicode = A810;
},
{
glyphname = uniA811;
lastChange = "2016-11-10 14:40:34 +0000";
layers = (
{
layerId = "96E79A57-6EA7-45C5-8AEB-CCA87A3E1305";
paths = (
{
closed = 1;
nodes = (
"296 -8 OFFCURVE",
"429 24 OFFCURVE",
"554 85 CURVE SMOOTH",
"804 208 OFFCURVE",
"969 432 OFFCURVE",
"969 647 CURVE SMOOTH",
"969 850 OFFCURVE",
"844 979 OFFCURVE",
"657 979 CURVE SMOOTH",
"597 979 OFFCURVE",
"540 966 OFFCURVE",
"487 940 CURVE",
"549 803 LINE",
"573 819 OFFCURVE",
"621 836 OFFCURVE",
"657 836 CURVE SMOOTH",
"761 836 OFFCURVE",
"813 765 OFFCURVE",
"813 645 CURVE SMOOTH",
"813 576 OFFCURVE",
"791 505 OFFCURVE",
"746 432 CURVE SMOOTH",
"656 287 OFFCURVE",
"485 173 OFFCURVE",
"301 150 CURVE",
"295 154 LINE",
"295 1251 LINE",
"1098 1251 LINE",
"1098 1391 LINE",
"-35 1391 LINE",
"-35 1251 LINE",
"139 1251 LINE",
"139 6 LINE",
"156 -10 LINE"
);
}
);
width = 1077;
}
);
note = uniA811;
unicode = A811;
},
{
glyphname = uniA812;
lastChange = "2016-11-10 14:46:32 +0000";
layers = (
{
layerId = "96E79A57-6EA7-45C5-8AEB-CCA87A3E1305";
paths = (
{
closed = 1;
nodes = (
"926 -16 OFFCURVE",
"1040 10 OFFCURVE",
"1141 61 CURVE SMOOTH",
"1343 163 OFFCURVE",
"1458 353 OFFCURVE",
"1458 582 CURVE SMOOTH",
"1458 711 OFFCURVE",
"1422 854 OFFCURVE",
"1362 969 CURVE",
"1158 951 OFFCURVE",
"995 874 OFFCURVE",
"874 737 CURVE",
"866 739 LINE",
"866 1251 LINE",
"1589 1251 LINE",
"1589 1391 LINE",
"-14 1391 LINE",
"-14 1251 LINE",
"709 1251 LINE",
"709 530 LINE",
"860 465 LINE",
"957 665 OFFCURVE",
"1077 768 OFFCURVE",
"1266 813 CURVE",
"1292 739 OFFCURVE",
"1305 665 OFFCURVE",
"1305 592 CURVE SMOOTH",
"1305 317 OFFCURVE",
"1103 139 OFFCURVE",
"803 139 CURVE SMOOTH",
"479 139 OFFCURVE",
"270 308 OFFCURVE",
"270 573 CURVE SMOOTH",
"270 618 OFFCURVE",
"275 659 OFFCURVE",
"286 697 CURVE SMOOTH",
"307 772 OFFCURVE",
"339 827 OFFCURVE",
"424 915 CURVE",
"297 1018 LINE",
"246 961 OFFCURVE",
"208 912 OFFCURVE",
"184 871 CURVE SMOOTH",
"136 789 OFFCURVE",
"102 693 OFFCURVE",
"102 578 CURVE SMOOTH",
"102 462 OFFCURVE",
"131 359 OFFCURVE",
"190 269 CURVE SMOOTH",
"307 88 OFFCURVE",
"532 -16 OFFCURVE",
"799 -16 CURVE SMOOTH"
);
}
);
width = 1575;
}
);
note = uniA812;
unicode = A812;
},
{
glyphname = uniA813;
lastChange = "2016-11-10 14:40:34 +0000";
layers = (
{
layerId = "96E79A57-6EA7-45C5-8AEB-CCA87A3E1305";
paths = (
{
closed = 1;
nodes = (
"331 2 OFFCURVE",
"472 30 OFFCURVE",
"601 85 CURVE SMOOTH",
"858 194 OFFCURVE",
"1020 404 OFFCURVE",
"1020 621 CURVE SMOOTH",
"1020 821 OFFCURVE",
"896 952 OFFCURVE",
"709 952 CURVE SMOOTH",
"659 952 OFFCURVE",
"613 942 OFFCURVE",
"570 922 CURVE SMOOTH",
"484 882 OFFCURVE",
"430 806 OFFCURVE",
"430 707 CURVE SMOOTH",
"430 584 OFFCURVE",
"506 499 OFFCURVE",
"623 475 CURVE",
"676 616 LINE",
"646 625 OFFCURVE",
"626 633 OFFCURVE",
"616 641 CURVE SMOOTH",
"596 657 OFFCURVE",
"584 678 OFFCURVE",
"584 713 CURVE SMOOTH",
"584 773 OFFCURVE",
"628 813 OFFCURVE",
"700 813 CURVE SMOOTH",
"807 813 OFFCURVE",
"860 748 OFFCURVE",
"860 618 CURVE SMOOTH",
"860 545 OFFCURVE",
"835 473 OFFCURVE",
"785 404 CURVE SMOOTH",
"685 264 OFFCURVE",
"504 169 OFFCURVE",
"311 160 CURVE",
"305 164 LINE",
"305 1251 LINE",
"1161 1251 LINE",
"1161 1391 LINE",
"-35 1391 LINE",
"-35 1251 LINE",
"150 1251 LINE",
"150 25 LINE",
"176 0 LINE"
);
}
);
width = 1128;
}
);
note = uniA813;
unicode = A813;
},
{
glyphname = uniA814;
lastChange = "2016-11-10 14:46:32 +0000";
layers = (
{
layerId = "96E79A57-6EA7-45C5-8AEB-CCA87A3E1305";
paths = (
{
closed = 1;
nodes = (
"327 102 OFFCURVE",
"397 245 OFFCURVE",
"397 397 CURVE SMOOTH",
"397 494 OFFCURVE",
"370 576 OFFCURVE",
"317 643 CURVE",
"322 649 LINE",
"378 626 OFFCURVE",
"438 614 OFFCURVE",
"502 614 CURVE SMOOTH",
"654 614 OFFCURVE",
"772 638 OFFCURVE",
"889 705 CURVE",
"889 0 LINE",
"1042 0 LINE",
"1042 1251 LINE",
"1182 1251 LINE",
"1182 1391 LINE",
"-35 1391 LINE",
"-35 1251 LINE",
"889 1251 LINE",
"889 881 LINE",
"769 799 OFFCURVE",
"640 758 OFFCURVE",
"502 758 CURVE SMOOTH",
"387 758 OFFCURVE",
"273 788 OFFCURVE",
"160 848 CURVE",
"78 721 LINE",
"202 614 OFFCURVE",
"248 520 OFFCURVE",
"248 397 CURVE SMOOTH",
"248 289 OFFCURVE",
"195 191 OFFCURVE",
"70 76 CURVE",
"186 -31 LINE"
);
}
);
width = 1171;
}
);
note = uniA814;
unicode = A814;
},
{
glyphname = uniA815;
lastChange = "2016-11-10 14:46:32 +0000";
layers = (
{
layerId = "96E79A57-6EA7-45C5-8AEB-CCA87A3E1305";
paths = (
{
closed = 1;
nodes = (
"1735 0 LINE",
"1735 1251 LINE",
"1909 1251 LINE",
"1909 1391 LINE",
"-35 1391 LINE",
"-35 1251 LINE",
"1487 1251 LINE",
"1322 1103 OFFCURVE",
"1194 952 OFFCURVE",
"1010 676 CURVE",
"1001 678 LINE",
"1001 1022 LINE",
"858 1083 LINE",
"811 1032 OFFCURVE",
"743 950 OFFCURVE",
"656 836 CURVE SMOOTH",
"559 710 OFFCURVE",
"485 616 OFFCURVE",
"432 555 CURVE SMOOTH",
"365 474 OFFCURVE",
"333 453 OFFCURVE",
"289 453 CURVE SMOOTH",
"250 453 OFFCURVE",
"226 475 OFFCURVE",
"199 528 CURVE",
"63 434 LINE",
"116 337 OFFCURVE",
"184 291 OFFCURVE",
"279 291 CURVE SMOOTH",
"340 291 OFFCURVE",
"398 312 OFFCURVE",
"453 353 CURVE SMOOTH",
"507 394 OFFCURVE",
"595 498 OFFCURVE",
"717 665 CURVE SMOOTH",
"848 842 LINE",
"848 442 LINE",
"1014 377 LINE",
"1171 666 OFFCURVE",
"1350 932 OFFCURVE",
"1575 1145 CURVE",
"1581 1143 LINE",
"1581 0 LINE"
);
}
);
width = 1894;
}
);
note = uniA815;
unicode = A815;
},
{
glyphname = uniA816;
lastChange = "2016-11-10 14:46:32 +0000";
layers = (
{
layerId = "96E79A57-6EA7-45C5-8AEB-CCA87A3E1305";
paths = (
{
closed = 1;
nodes = (
"1203 -336 OFFCURVE",
"1260 -317 OFFCURVE",
"1323 -270 CURVE",
"1247 -137 LINE",
"1201 -167 OFFCURVE",
"1158 -182 OFFCURVE",
"1118 -182 CURVE SMOOTH",
"1054 -182 OFFCURVE",
"1024 -146 OFFCURVE",
"1024 -39 CURVE SMOOTH",
"1024 936 LINE",
"852 1004 LINE",
"739 923 OFFCURVE",
"666 869 OFFCURVE",
"633 842 CURVE SMOOTH",
"600 815 OFFCURVE",
"569 789 OFFCURVE",
"540 762 CURVE SMOOTH",
"481 709 OFFCURVE",
"419 644 OFFCURVE",
"344 563 CURVE",
"336 565 LINE",
"336 1251 LINE",
"1407 1251 LINE",
"1407 1391 LINE",
"-35 1391 LINE",
"-35 1251 LINE",
"178 1251 LINE",
"178 360 LINE",
"342 293 LINE",
"497 525 OFFCURVE",
"655 688 OFFCURVE",
"866 831 CURVE",
"872 827 LINE",
"872 -45 LINE SMOOTH",
"872 -242 OFFCURVE",
"963 -336 OFFCURVE",
"1122 -336 CURVE SMOOTH"
);
}
);
width = 1380;
}
);
note = uniA816;
unicode = A816;
},
{
glyphname = uniA817;
lastChange = "2016-11-10 14:46:32 +0000";
layers = (
{
layerId = "96E79A57-6EA7-45C5-8AEB-CCA87A3E1305";
paths = (
{
closed = 1;
nodes = (
"1483 0 LINE",
"1483 1251 LINE",
"1657 1251 LINE",
"1657 1391 LINE",
"-35 1391 LINE",
"-35 1251 LINE",
"78 1251 LINE",
"90 954 OFFCURVE",
"213 805 OFFCURVE",
"446 805 CURVE SMOOTH",
"498 805 OFFCURVE",
"547 816 OFFCURVE",
"594 838 CURVE",
"594 434 LINE",
"772 379 LINE",
"823 470 OFFCURVE",
"874 553 OFFCURVE",
"925 630 CURVE SMOOTH",
"1028 782 OFFCURVE",
"1112 878 OFFCURVE",
"1321 1061 CURVE",
"1327 1059 LINE",
"1327 0 LINE"
);
},
{
closed = 1;
nodes = (
"752 643 LINE",
"752 1022 LINE",
"733 1030 LINE",
"653 974 OFFCURVE",
"578 946 OFFCURVE",
"465 946 CURVE SMOOTH",
"313 946 OFFCURVE",
"238 1043 OFFCURVE",
"229 1251 CURVE",
"1329 1251 LINE",
"1033 1000 OFFCURVE",
"904 854 OFFCURVE",
"760 641 CURVE"
);
}
);
width = 1651;
}
);
note = uniA817;
unicode = A817;
},
{
glyphname = uniA818;
lastChange = "2016-11-10 14:46:32 +0000";
layers = (
{
layerId = "96E79A57-6EA7-45C5-8AEB-CCA87A3E1305";
paths = (
{
closed = 1;
nodes = (
"1108 0 LINE",
"1108 1251 LINE",
"1305 1251 LINE",
"1305 1391 LINE",
"-35 1391 LINE",
"-35 1251 LINE",
"627 1251 LINE",
"528 1201 OFFCURVE",
"437 1136 OFFCURVE",
"355 1056 CURVE SMOOTH",
"191 895 OFFCURVE",
"90 697 OFFCURVE",
"90 510 CURVE SMOOTH",
"90 444 OFFCURVE",
"104 385 OFFCURVE",
"132 334 CURVE SMOOTH",
"188 230 OFFCURVE",
"292 170 OFFCURVE",
"408 170 CURVE SMOOTH",
"589 170 OFFCURVE",
"715 300 OFFCURVE",
"715 471 CURVE SMOOTH",
"715 654 OFFCURVE",
"610 780 OFFCURVE",
"389 872 CURVE",
"534 1073 OFFCURVE",
"765 1214 OFFCURVE",
"934 1214 CURVE SMOOTH",
"944 1214 LINE",
"954 1212 LINE",
"954 0 LINE"
);
},
{
closed = 1;
nodes = (
"321 313 OFFCURVE",
"250 395 OFFCURVE",
"250 502 CURVE SMOOTH",
"250 581 OFFCURVE",
"273 662 OFFCURVE",
"319 745 CURVE",
"475 681 OFFCURVE",
"555 582 OFFCURVE",
"555 461 CURVE SMOOTH",
"555 376 OFFCURVE",
"493 313 OFFCURVE",
"410 313 CURVE SMOOTH"
);
}
);
width = 1290;
}
);
note = uniA818;
unicode = A818;
},
{
glyphname = uniA819;
lastChange = "2016-11-10 14:46:32 +0000";
layers = (
{
layerId = "96E79A57-6EA7-45C5-8AEB-CCA87A3E1305";
paths = (
{
closed = 1;
nodes = (
"1401 0 LINE",
"1401 1251 LINE",
"1575 1251 LINE",
"1575 1391 LINE",
"-35 1391 LINE",
"-35 1251 LINE",
"139 1251 LINE",
"139 186 LINE",
"301 121 LINE",
"553 505 OFFCURVE",
"895 842 OFFCURVE",
"1239 1061 CURVE",
"1245 1059 LINE",
"1245 0 LINE"
);
},
{
closed = 1;
nodes = (
"295 403 LINE",
"295 1251 LINE",
"1249 1251 LINE",
"844 991 OFFCURVE",
"511 692 OFFCURVE",
"303 401 CURVE"
);
}
);
width = 1536;
}
);
note = uniA819;
unicode = A819;
},
{
glyphname = uniA81A;
lastChange = "2016-11-10 14:46:32 +0000";
layers = (
{
layerId = "96E79A57-6EA7-45C5-8AEB-CCA87A3E1305";
paths = (
{
closed = 1;
nodes = (
"1401 0 LINE",
"1401 342 LINE",
"1511 215 OFFCURVE",
"1643 144 OFFCURVE",
"1798 131 CURVE",
"1821 276 LINE",
"1682 291 OFFCURVE",
"1531 361 OFFCURVE",
"1464 438 CURVE",
"1466 444 LINE",
"1721 452 OFFCURVE",
"1827 535 OFFCURVE",
"1827 686 CURVE SMOOTH",
"1827 833 OFFCURVE",
"1735 915 OFFCURVE",
"1575 915 CURVE SMOOTH",
"1514 915 OFFCURVE",
"1456 907 OFFCURVE",
"1401 891 CURVE",
"1401 1251 LINE",
"1884 1251 LINE",
"1884 1391 LINE",
"-35 1391 LINE",
"-35 1251 LINE",
"139 1251 LINE",
"139 195 LINE",
"301 129 LINE",
"525 492 OFFCURVE",
"844 814 OFFCURVE",
"1239 1061 CURVE",
"1245 1059 LINE",
"1245 0 LINE"
);
},
{
closed = 1;
nodes = (
"295 403 LINE",
"295 1251 LINE",
"1249 1251 LINE",
"844 991 OFFCURVE",
"511 692 OFFCURVE",
"303 401 CURVE"
);
},
{
closed = 1;
nodes = (
"1401 760 LINE",
"1459 781 OFFCURVE",
"1514 791 OFFCURVE",
"1567 791 CURVE SMOOTH",
"1636 791 OFFCURVE",
"1681 757 OFFCURVE",
"1681 686 CURVE SMOOTH",
"1681 647 OFFCURVE",
"1656 615 OFFCURVE",
"1607 592 CURVE SMOOTH",
"1557 568 OFFCURVE",
"1488 555 OFFCURVE",
"1401 553 CURVE"
);
}
);
width = 1860;
}
);
note = uniA81A;
unicode = A81A;
},
{
glyphname = uniA81B;
lastChange = "2016-11-10 14:46:32 +0000";
layers = (
{
layerId = "96E79A57-6EA7-45C5-8AEB-CCA87A3E1305";
paths = (
{
closed = 1;
nodes = (
"1053 0 LINE",
"1053 1251 LINE",
"1249 1251 LINE",
"1249 1391 LINE",
"-35 1391 LINE",
"-35 1251 LINE",
"897 1251 LINE",
"897 971 LINE",
"798 1032 OFFCURVE",
"690 1063 OFFCURVE",
"575 1063 CURVE SMOOTH",
"286 1063 OFFCURVE",
"121 915 OFFCURVE",
"121 659 CURVE SMOOTH",
"121 395 OFFCURVE",
"285 250 OFFCURVE",
"569 250 CURVE SMOOTH",
"687 250 OFFCURVE",
"796 287 OFFCURVE",
"897 360 CURVE",
"897 0 LINE"
);
},
{
closed = 1;
nodes = (
"380 401 OFFCURVE",
"289 486 OFFCURVE",
"289 659 CURVE SMOOTH",
"289 830 OFFCURVE",
"390 915 OFFCURVE",
"592 915 CURVE SMOOTH",
"693 915 OFFCURVE",
"785 890 OFFCURVE",
"897 813 CURVE",
"897 532 LINE",
"802 445 OFFCURVE",
"694 401 OFFCURVE",
"573 401 CURVE SMOOTH"
);
}
);
width = 1214;
}
);
note = uniA81B;
unicode = A81B;
},
{
glyphname = uniA81C;
lastChange = "2016-11-10 14:46:32 +0000";
layers = (
{
layerId = "96E79A57-6EA7-45C5-8AEB-CCA87A3E1305";
paths = (
{
closed = 1;
nodes = (
"1286 0 LINE",
"1286 1251 LINE",
"1483 1251 LINE",
"1483 1391 LINE",
"-35 1391 LINE",
"-35 1251 LINE",
"805 1251 LINE",
"661 1178 OFFCURVE",
"521 1062 OFFCURVE",
"418 922 CURVE",
"348 935 OFFCURVE",
"271 942 OFFCURVE",
"186 942 CURVE",
"72 938 LINE",
"90 797 LINE",
"127 799 LINE",
"168 799 LINE SMOOTH",
"233 799 OFFCURVE",
"289 795 OFFCURVE",
"336 788 CURVE",
"291 695 OFFCURVE",
"268 602 OFFCURVE",
"268 510 CURVE SMOOTH",
"268 444 OFFCURVE",
"282 385 OFFCURVE",
"310 334 CURVE SMOOTH",
"366 230 OFFCURVE",
"470 170 OFFCURVE",
"586 170 CURVE SMOOTH",
"767 170 OFFCURVE",
"893 300 OFFCURVE",
"893 471 CURVE SMOOTH",
"893 650 OFFCURVE",
"782 785 OFFCURVE",
"561 877 CURVE",
"696 1068 OFFCURVE",
"935 1214 OFFCURVE",
"1110 1214 CURVE SMOOTH",
"1120 1214 LINE",
"1130 1212 LINE",
"1130 0 LINE"
);
},
{
closed = 1;
nodes = (
"497 313 OFFCURVE",
"428 397 OFFCURVE",
"428 502 CURVE SMOOTH",
"428 577 OFFCURVE",
"451 658 OFFCURVE",
"496 745 CURVE",
"645 685 OFFCURVE",
"733 585 OFFCURVE",
"733 461 CURVE SMOOTH",
"733 376 OFFCURVE",
"671 313 OFFCURVE",
"588 313 CURVE SMOOTH"
);
}
);
width = 1466;
}
);
note = uniA81C;
unicode = A81C;
},
{
glyphname = uniA81D;
lastChange = "2016-11-10 14:46:32 +0000";
layers = (
{
layerId = "96E79A57-6EA7-45C5-8AEB-CCA87A3E1305";
paths = (
{
closed = 1;
nodes = (
"1198 0 LINE",
"1198 1251 LINE",
"1372 1251 LINE",
"1372 1391 LINE",
"-35 1391 LINE",
"-35 1251 LINE",
"66 1251 LINE",
"207 1113 OFFCURVE",
"320 985 OFFCURVE",
"403 868 CURVE",
"211 720 OFFCURVE",
"143 612 OFFCURVE",
"143 487 CURVE SMOOTH",
"143 434 OFFCURVE",
"154 387 OFFCURVE",
"176 345 CURVE SMOOTH",
"220 260 OFFCURVE",
"303 211 OFFCURVE",
"418 211 CURVE SMOOTH",
"582 211 OFFCURVE",
"709 328 OFFCURVE",
"709 483 CURVE SMOOTH",
"709 607 OFFCURVE",
"675 713 OFFCURVE",
"602 838 CURVE",
"697 902 OFFCURVE",
"843 992 OFFCURVE",
"1042 1108 CURVE",
"1042 0 LINE"
);
},
{
closed = 1;
nodes = (
"344 352 OFFCURVE",
"295 410 OFFCURVE",
"295 487 CURVE SMOOTH",
"295 571 OFFCURVE",
"350 651 OFFCURVE",
"479 752 CURVE",
"534 651 OFFCURVE",
"561 567 OFFCURVE",
"561 498 CURVE SMOOTH",
"561 407 OFFCURVE",
"501 352 OFFCURVE",
"424 352 CURVE SMOOTH"
);
},
{
closed = 1;
nodes = (
"465 1037 OFFCURVE",
"382 1136 OFFCURVE",
"276 1251 CURVE",
"1004 1251 LINE",
"813 1140 OFFCURVE",
"653 1042 OFFCURVE",
"524 956 CURVE"
);
}
);
width = 1356;
}
);
note = uniA81D;
unicode = A81D;
},
{
glyphname = uniA81E;
lastChange = "2016-11-10 14:46:32 +0000";
layers = (
{
layerId = "96E79A57-6EA7-45C5-8AEB-CCA87A3E1305";
paths = (
{
closed = 1;
nodes = (
"1178 0 LINE",
"1178 1251 LINE",
"1352 1251 LINE",
"1352 1391 LINE",
"-35 1391 LINE",
"-35 1251 LINE",
"934 1251 LINE",
"847 1166 OFFCURVE",
"734 1033 OFFCURVE",
"595 852 CURVE SMOOTH",
"542 785 OFFCURVE",
"502 735 OFFCURVE",
"475 702 CURVE SMOOTH",
"420 637 OFFCURVE",
"387 612 OFFCURVE",
"338 612 CURVE SMOOTH",
"295 612 OFFCURVE",
"259 632 OFFCURVE",
"229 672 CURVE",
"113 557 LINE",
"180 477 OFFCURVE",
"234 444 OFFCURVE",
"326 444 CURVE SMOOTH",
"383 444 OFFCURVE",
"436 463 OFFCURVE",
"485 500 CURVE SMOOTH",
"534 537 OFFCURVE",
"610 625 OFFCURVE",
"715 766 CURVE SMOOTH",
"870 974 OFFCURVE",
"939 1060 OFFCURVE",
"1020 1143 CURVE",
"1022 1143 LINE",
"1022 0 LINE"
);
}
);
width = 1335;
}
);
note = uniA81E;
unicode = A81E;
},
{
glyphname = uniA81F;
lastChange = "2016-11-10 14:46:32 +0000";
layers = (
{
layerId = "96E79A57-6EA7-45C5-8AEB-CCA87A3E1305";
paths = (
{
closed = 1;
nodes = (
"1178 0 LINE",
"1178 1251 LINE",
"1352 1251 LINE",
"1352 1391 LINE",
"-35 1391 LINE",
"-35 1251 LINE",
"928 1251 LINE",
"757 1099 OFFCURVE",
"609 923 OFFCURVE",
"465 748 CURVE SMOOTH",
"426 699 OFFCURVE",
"396 668 OFFCURVE",
"377 655 CURVE SMOOTH",
"358 642 OFFCURVE",
"337 635 OFFCURVE",
"315 635 CURVE SMOOTH",
"275 635 OFFCURVE",
"238 655 OFFCURVE",
"203 696 CURVE",
"92 590 LINE",
"156 502 OFFCURVE",
"222 473 OFFCURVE",
"301 473 CURVE SMOOTH",
"397 473 OFFCURVE",
"465 509 OFFCURVE",
"590 662 CURVE SMOOTH",
"735 842 OFFCURVE",
"866 1001 OFFCURVE",
"1022 1141 CURVE",
"1022 0 LINE"
);
},
{
closed = 1;
nodes = (
"821 -29 LINE",
"734 25 OFFCURVE",
"690 102 OFFCURVE",
"690 203 CURVE SMOOTH",
"690 243 OFFCURVE",
"697 280 OFFCURVE",
"712 314 CURVE SMOOTH",
"740 381 OFFCURVE",
"782 431 OFFCURVE",
"897 512 CURVE",
"821 616 LINE",
"629 483 OFFCURVE",
"547 347 OFFCURVE",
"547 195 CURVE SMOOTH",
"547 55 OFFCURVE",
"616 -74 OFFCURVE",
"731 -143 CURVE"
);
}
);
width = 1335;
}
);
note = uniA81F;
unicode = A81F;
},
{
glyphname = uniA820;
lastChange = "2016-11-10 14:46:32 +0000";
layers = (
{
layerId = "96E79A57-6EA7-45C5-8AEB-CCA87A3E1305";
paths = (
{
closed = 1;
nodes = (
"896 -146 OFFCURVE",
"1081 188 OFFCURVE",
"1081 528 CURVE SMOOTH",
"1081 669 OFFCURVE",
"1052 801 OFFCURVE",
"993 924 CURVE",
"729 900 OFFCURVE",
"484 764 OFFCURVE",
"344 563 CURVE",
"336 565 LINE",
"336 1251 LINE",
"1278 1251 LINE",
"1278 1391 LINE",
"-35 1391 LINE",
"-35 1251 LINE",
"178 1251 LINE",
"178 358 LINE",
"330 293 LINE",
"483 554 OFFCURVE",
"693 724 OFFCURVE",
"893 760 CURVE",
"916 677 OFFCURVE",
"928 605 OFFCURVE",
"928 543 CURVE SMOOTH",
"928 440 OFFCURVE",
"913 345 OFFCURVE",
"883 259 CURVE SMOOTH",
"823 86 OFFCURVE",
"712 -60 OFFCURVE",
"481 -248 CURVE",
"588 -373 LINE"
);
}
);
width = 1247;
}
);
note = uniA820;
unicode = A820;
},
{
glyphname = uniA821;
lastChange = "2016-11-10 14:46:32 +0000";
layers = (
{
layerId = "96E79A57-6EA7-45C5-8AEB-CCA87A3E1305";
paths = (
{
closed = 1;
nodes = (
"807 10 LINE",
"710 231 OFFCURVE",
"530 402 OFFCURVE",
"358 449 CURVE",
"360 457 LINE",
"520 468 OFFCURVE",
"653 542 OFFCURVE",
"721 647 CURVE",
"882 796 OFFCURVE",
"1055 934 OFFCURVE",
"1239 1061 CURVE",
"1245 1059 LINE",
"1245 0 LINE",
"1401 0 LINE",
"1401 1251 LINE",
"1575 1251 LINE",
"1575 1391 LINE",
"-35 1391 LINE",
"-35 1251 LINE",
"1249 1251 LINE",
"1032 1092 OFFCURVE",
"869 965 OFFCURVE",
"760 872 CURVE",
"731 1039 OFFCURVE",
"602 1151 OFFCURVE",
"446 1151 CURVE SMOOTH",
"318 1151 OFFCURVE",
"174 1102 OFFCURVE",
"70 1014 CURVE",
"164 889 LINE",
"253 970 OFFCURVE",
"346 1010 OFFCURVE",
"442 1010 CURVE SMOOTH",
"543 1010 OFFCURVE",
"612 929 OFFCURVE",
"612 805 CURVE SMOOTH",
"612 762 OFFCURVE",
"594 723 OFFCURVE",
"557 689 CURVE SMOOTH",
"483 620 OFFCURVE",
"316 568 OFFCURVE",
"133 553 CURVE",
"133 401 LINE",
"389 342 OFFCURVE",
"563 178 OFFCURVE",
"655 -63 CURVE"
);
}
);
width = 1561;
}
);
note = uniA821;
unicode = A821;
},
{
glyphname = uniA822;
lastChange = "2016-11-10 14:46:32 +0000";
layers = (
{
layerId = "96E79A57-6EA7-45C5-8AEB-CCA87A3E1305";
paths = (
{
closed = 1;
nodes = (
"1462 0 LINE",
"1462 1251 LINE",
"1636 1251 LINE",
"1636 1391 LINE",
"-35 1391 LINE",
"-35 1251 LINE",
"139 1251 LINE",
"139 195 LINE",
"301 129 LINE",
"498 448 OFFCURVE",
"811 750 OFFCURVE",
"1300 1061 CURVE",
"1307 1059 LINE",
"1307 0 LINE"
);
},
{
closed = 1;
nodes = (
"1163 -29 LINE",
"1031 6 OFFCURVE",
"952 96 OFFCURVE",
"952 211 CURVE SMOOTH",
"952 260 OFFCURVE",
"959 302 OFFCURVE",
"972 339 CURVE SMOOTH",
"999 411 OFFCURVE",
"1027 454 OFFCURVE",
"1167 573 CURVE",
"1096 668 LINE",
"903 528 OFFCURVE",
"807 375 OFFCURVE",
"807 209 CURVE SMOOTH",
"807 37 OFFCURVE",
"903 -95 OFFCURVE",
"1114 -168 CURVE"
);
},
{
closed = 1;
nodes = (
"295 403 LINE",
"295 1251 LINE",
"1311 1251 LINE",
"774 904 OFFCURVE",
"488 658 OFFCURVE",
"303 401 CURVE"
);
}
);
width = 1612;
}
);
note = uniA822;
unicode = A822;
},
{
glyphname = uniA823;
lastChange = "2016-11-10 14:46:32 +0000";
layers = (
{
layerId = "96E79A57-6EA7-45C5-8AEB-CCA87A3E1305";
paths = (
{
closed = 1;
nodes = (
"403 0 LINE",
"403 1251 LINE",
"596 1251 LINE",
"596 1391 LINE",
"-35 1391 LINE",
"-35 1251 LINE",
"248 1251 LINE",
"248 0 LINE"
);
}
);
width = 575;
}
);
note = uniA823;
unicode = A823;
},
{
glyphname = uniA824;
lastChange = "2016-11-10 14:46:32 +0000";
layers = (
{
layerId = "96E79A57-6EA7-45C5-8AEB-CCA87A3E1305";
paths = (
{
closed = 1;
nodes = (
"360 0 LINE",
"360 1251 LINE",
"553 1251 LINE",
"553 1391 LINE",
"360 1391 LINE",
"360 1657 LINE SMOOTH",
"360 1853 OFFCURVE",
"264 1962 OFFCURVE",
"100 1962 CURVE SMOOTH",
"-100 1962 OFFCURVE",
"-249 1838 OFFCURVE",
"-381 1559 CURVE",
"-231 1491 LINE",
"-119 1726 OFFCURVE",
"-23 1819 OFFCURVE",
"92 1819 CURVE SMOOTH",
"167 1819 OFFCURVE",
"205 1765 OFFCURVE",
"205 1657 CURVE SMOOTH",
"205 1391 LINE",
"-35 1391 LINE",
"-35 1251 LINE",
"205 1251 LINE",
"205 0 LINE"
);
}
);
width = 520;
}
);
note = uniA824;
unicode = A824;
},
{
glyphname = uniA825;
lastChange = "2016-11-10 14:46:32 +0000";
layers = (
{
layerId = "96E79A57-6EA7-45C5-8AEB-CCA87A3E1305";
paths = (
{
closed = 1;
nodes = (
"-157 -553 OFFCURVE",
"12 -457 OFFCURVE",
"12 -250 CURVE SMOOTH",
"12 -83 OFFCURVE",
"-89 14 OFFCURVE",
"-250 14 CURVE SMOOTH",
"-301 14 OFFCURVE",
"-350 7 OFFCURVE",
"-397 -6 CURVE",
"-356 -145 LINE",
"-323 -136 OFFCURVE",
"-290 -131 OFFCURVE",
"-256 -131 CURVE SMOOTH",
"-175 -131 OFFCURVE",
"-135 -171 OFFCURVE",
"-135 -250 CURVE SMOOTH",
"-135 -309 OFFCURVE",
"-165 -351 OFFCURVE",
"-225 -376 CURVE SMOOTH",
"-285 -401 OFFCURVE",
"-379 -414 OFFCURVE",
"-508 -414 CURVE SMOOTH",
"-593 -414 OFFCURVE",
"-677 -405 OFFCURVE",
"-760 -387 CURVE",
"-799 -524 LINE",
"-704 -543 OFFCURVE",
"-607 -553 OFFCURVE",
"-508 -553 CURVE SMOOTH"
);
}
);
width = 0;
}
);
note = uniA825;
unicode = A825;
},
{
glyphname = uniA826;
lastChange = "2016-11-10 14:46:32 +0000";
layers = (
{
layerId = "96E79A57-6EA7-45C5-8AEB-CCA87A3E1305";
paths = (
{
closed = 1;
nodes = (
"-141 1382 LINE",
"-265 1657 OFFCURVE",
"-495 1857 OFFCURVE",
"-778 1946 CURVE",
"-825 1819 LINE",
"-598 1754 OFFCURVE",
"-399 1591 OFFCURVE",
"-272 1358 CURVE"
);
}
);
width = 0;
}
);
note = uniA826;
unicode = A826;
},
{
glyphname = uniA827;
lastChange = "2016-11-10 14:46:32 +0000";
layers = (
{
layerId = "96E79A57-6EA7-45C5-8AEB-CCA87A3E1305";
paths = (
{
closed = 1;
nodes = (
"360 0 LINE",
"360 1251 LINE",
"553 1251 LINE",
"553 1391 LINE",
"334 1391 LINE",
"226 1624 OFFCURVE",
"40 1810 OFFCURVE",
"-207 1915 CURVE",
"-266 1784 LINE",
"-75 1707 OFFCURVE",
"76 1576 OFFCURVE",
"186 1391 CURVE",
"-35 1391 LINE",
"-35 1251 LINE",
"205 1251 LINE",
"205 0 LINE"
);
}
);
width = 537;
}
);
note = uniA827;
unicode = A827;
},
{
glyphname = uniA828;
lastChange = "2016-11-10 14:46:32 +0000";
layers = (
{
layerId = "96E79A57-6EA7-45C5-8AEB-CCA87A3E1305";
paths = (
{
closed = 1;
nodes = (
"530 541 OFFCURVE",
"637 636 OFFCURVE",
"637 760 CURVE SMOOTH",
"637 884 OFFCURVE",
"530 979 OFFCURVE",
"397 979 CURVE SMOOTH",
"266 979 OFFCURVE",
"164 883 OFFCURVE",
"164 760 CURVE SMOOTH",
"164 636 OFFCURVE",
"268 541 OFFCURVE",
"397 541 CURVE SMOOTH"
);
},
{
closed = 1;
nodes = (
"343 664 OFFCURVE",
"297 710 OFFCURVE",
"297 758 CURVE SMOOTH",
"297 807 OFFCURVE",
"340 852 OFFCURVE",
"395 852 CURVE SMOOTH",
"451 852 OFFCURVE",
"492 811 OFFCURVE",
"492 758 CURVE SMOOTH",
"492 710 OFFCURVE",
"452 664 OFFCURVE",
"395 664 CURVE SMOOTH"
);
}
);
width = 780;
}
);
note = uniA828;
unicode = A828;
},
{
glyphname = uniA829;
lastChange = "2016-11-10 14:46:32 +0000";
layers = (
{
layerId = "96E79A57-6EA7-45C5-8AEB-CCA87A3E1305";
paths = (
{
closed = 1;
nodes = (
"465 705 OFFCURVE",
"575 800 OFFCURVE",
"575 924 CURVE SMOOTH",
"575 1048 OFFCURVE",
"469 1145 OFFCURVE",
"336 1145 CURVE SMOOTH",
"204 1145 OFFCURVE",
"100 1047 OFFCURVE",
"100 924 CURVE SMOOTH",
"100 803 OFFCURVE",
"207 705 OFFCURVE",
"336 705 CURVE SMOOTH"
);
},
{
closed = 1;
nodes = (
"283 270 OFFCURVE",
"236 314 OFFCURVE",
"236 365 CURVE SMOOTH",
"236 416 OFFCURVE",
"279 459 OFFCURVE",
"334 459 CURVE SMOOTH",
"390 459 OFFCURVE",
"430 418 OFFCURVE",
"430 365 CURVE SMOOTH",
"430 314 OFFCURVE",
"390 270 OFFCURVE",
"334 270 CURVE SMOOTH"
);
},
{
closed = 1;
nodes = (
"471 147 OFFCURVE",
"575 244 OFFCURVE",
"575 367 CURVE SMOOTH",
"575 490 OFFCURVE",
"469 586 OFFCURVE",
"336 586 CURVE SMOOTH",
"205 586 OFFCURVE",
"100 490 OFFCURVE",
"100 367 CURVE SMOOTH",
"100 246 OFFCURVE",
"203 147 OFFCURVE",
"336 147 CURVE SMOOTH"
);
},
{
closed = 1;
nodes = (
"283 829 OFFCURVE",
"236 870 OFFCURVE",
"236 922 CURVE SMOOTH",
"236 977 OFFCURVE",
"282 1018 OFFCURVE",
"334 1018 CURVE SMOOTH",
"390 1018 OFFCURVE",
"430 978 OFFCURVE",
"430 922 CURVE SMOOTH",
"430 871 OFFCURVE",
"390 829 OFFCURVE",
"334 829 CURVE SMOOTH"
);
}
);
width = 678;
}
);
note = uniA829;
unicode = A829;
},
{
glyphname = uniA82A;
lastChange = "2016-11-10 14:46:32 +0000";
layers = (
{
layerId = "96E79A57-6EA7-45C5-8AEB-CCA87A3E1305";
paths = (
{
closed = 1;
nodes = (
"1067 705 OFFCURVE",
"1176 800 OFFCURVE",
"1176 924 CURVE SMOOTH",
"1176 1048 OFFCURVE",
"1071 1145 OFFCURVE",
"936 1145 CURVE SMOOTH",
"804 1145 OFFCURVE",
"700 1047 OFFCURVE",
"700 924 CURVE SMOOTH",
"700 803 OFFCURVE",
"807 705 OFFCURVE",
"936 705 CURVE SMOOTH"
);
},
{
closed = 1;
nodes = (
"578 334 OFFCURVE",
"530 378 OFFCURVE",
"530 426 CURVE SMOOTH",
"530 475 OFFCURVE",
"575 522 OFFCURVE",
"627 522 CURVE SMOOTH",
"683 522 OFFCURVE",
"723 479 OFFCURVE",
"723 426 CURVE SMOOTH",
"723 378 OFFCURVE",
"682 334 OFFCURVE",
"627 334 CURVE SMOOTH"
);
},
{
closed = 1;
nodes = (
"762 209 OFFCURVE",
"868 301 OFFCURVE",
"868 428 CURVE SMOOTH",
"868 556 OFFCURVE",
"761 647 OFFCURVE",
"629 647 CURVE SMOOTH",
"500 647 OFFCURVE",
"395 555 OFFCURVE",
"395 428 CURVE SMOOTH",
"395 304 OFFCURVE",
"497 209 OFFCURVE",
"629 209 CURVE SMOOTH"
);
},
{
closed = 1;
nodes = (
"283 829 OFFCURVE",
"236 870 OFFCURVE",
"236 922 CURVE SMOOTH",
"236 977 OFFCURVE",
"282 1018 OFFCURVE",
"334 1018 CURVE SMOOTH",
"390 1018 OFFCURVE",
"430 978 OFFCURVE",
"430 922 CURVE SMOOTH",
"430 871 OFFCURVE",
"390 829 OFFCURVE",
"334 829 CURVE SMOOTH"
);
},
{
closed = 1;
nodes = (
"465 705 OFFCURVE",
"575 800 OFFCURVE",
"575 924 CURVE SMOOTH",
"575 1048 OFFCURVE",
"469 1145 OFFCURVE",
"336 1145 CURVE SMOOTH",
"204 1145 OFFCURVE",
"100 1047 OFFCURVE",
"100 924 CURVE SMOOTH",
"100 803 OFFCURVE",
"207 705 OFFCURVE",
"336 705 CURVE SMOOTH"
);
},
{
closed = 1;
nodes = (
"883 829 OFFCURVE",
"836 870 OFFCURVE",
"836 922 CURVE SMOOTH",
"836 977 OFFCURVE",
"882 1018 OFFCURVE",
"934 1018 CURVE SMOOTH",
"990 1018 OFFCURVE",
"1030 978 OFFCURVE",
"1030 922 CURVE SMOOTH",
"1030 871 OFFCURVE",
"990 829 OFFCURVE",
"934 829 CURVE SMOOTH"
);
}
);
width = 1286;
}
);
note = uniA82A;
unicode = A82A;
},
{
glyphname = uniA82B;
lastChange = "2016-11-10 14:46:32 +0000";
layers = (
{
layerId = "96E79A57-6EA7-45C5-8AEB-CCA87A3E1305";
paths = (
{
closed = 1;
nodes = (
"1085 719 OFFCURVE",
"1194 813 OFFCURVE",
"1194 940 CURVE SMOOTH",
"1194 1064 OFFCURVE",
"1087 1159 OFFCURVE",
"954 1159 CURVE SMOOTH",
"822 1159 OFFCURVE",
"719 1064 OFFCURVE",
"719 940 CURVE SMOOTH",
"719 812 OFFCURVE",
"827 719 OFFCURVE",
"954 719 CURVE SMOOTH"
);
},
{
closed = 1;
nodes = (
"326 295 OFFCURVE",
"276 341 OFFCURVE",
"276 389 CURVE SMOOTH",
"276 438 OFFCURVE",
"322 483 OFFCURVE",
"375 483 CURVE SMOOTH",
"431 483 OFFCURVE",
"471 442 OFFCURVE",
"471 389 CURVE SMOOTH",
"471 341 OFFCURVE",
"430 295 OFFCURVE",
"375 295 CURVE SMOOTH"
);
},
{
closed = 1;
nodes = (
"509 172 OFFCURVE",
"616 267 OFFCURVE",
"616 391 CURVE SMOOTH",
"616 518 OFFCURVE",
"508 610 OFFCURVE",
"377 610 CURVE SMOOTH",
"248 610 OFFCURVE",
"143 518 OFFCURVE",
"143 391 CURVE SMOOTH",
"143 267 OFFCURVE",
"245 172 OFFCURVE",
"377 172 CURVE SMOOTH"
);
},
{
closed = 1;
nodes = (
"324 844 OFFCURVE",
"276 889 OFFCURVE",
"276 938 CURVE SMOOTH",
"276 987 OFFCURVE",
"322 1032 OFFCURVE",
"375 1032 CURVE SMOOTH",
"431 1032 OFFCURVE",
"471 991 OFFCURVE",
"471 938 CURVE SMOOTH",
"471 889 OFFCURVE",
"431 844 OFFCURVE",
"375 844 CURVE SMOOTH"
);
},
{
closed = 1;
nodes = (
"506 719 OFFCURVE",
"616 813 OFFCURVE",
"616 940 CURVE SMOOTH",
"616 1063 OFFCURVE",
"510 1159 OFFCURVE",
"377 1159 CURVE SMOOTH",
"245 1159 OFFCURVE",
"143 1063 OFFCURVE",
"143 940 CURVE SMOOTH",
"143 815 OFFCURVE",
"248 719 OFFCURVE",
"377 719 CURVE SMOOTH"
);
},
{
closed = 1;
nodes = (
"900 295 OFFCURVE",
"854 340 OFFCURVE",
"854 389 CURVE SMOOTH",
"854 440 OFFCURVE",
"897 483 OFFCURVE",
"952 483 CURVE SMOOTH",
"1008 483 OFFCURVE",
"1049 442 OFFCURVE",
"1049 389 CURVE SMOOTH",
"1049 338 OFFCURVE",
"1007 295 OFFCURVE",
"952 295 CURVE SMOOTH"
);
},
{
closed = 1;
nodes = (
"1087 172 OFFCURVE",
"1194 267 OFFCURVE",
"1194 391 CURVE SMOOTH",
"1194 518 OFFCURVE",
"1086 610 OFFCURVE",
"954 610 CURVE SMOOTH",
"826 610 OFFCURVE",
"719 519 OFFCURVE",
"719 391 CURVE SMOOTH",
"719 266 OFFCURVE",
"823 172 OFFCURVE",
"954 172 CURVE SMOOTH"
);
},
{
closed = 1;
nodes = (
"900 844 OFFCURVE",
"854 889 OFFCURVE",
"854 938 CURVE SMOOTH",
"854 989 OFFCURVE",
"897 1032 OFFCURVE",
"952 1032 CURVE SMOOTH",
"1008 1032 OFFCURVE",
"1049 991 OFFCURVE",
"1049 938 CURVE SMOOTH",
"1049 890 OFFCURVE",
"1009 844 OFFCURVE",
"952 844 CURVE SMOOTH"
);
}
);
width = 1323;
}
);
note = uniA82B;
unicode = A82B;
},
{
glyphname = g54;
lastChange = "2016-11-10 14:46:36 +0000";
layers = (
{
layerId = "96E79A57-6EA7-45C5-8AEB-CCA87A3E1305";
paths = (
{
closed = 1;
nodes = (
"1610 -203 LINE",
"1610 516 LINE",
"1771 634 OFFCURVE",
"1933 738 OFFCURVE",
"2097 827 CURVE",
"2103 825 LINE",
"2103 -203 LINE",
"2259 -203 LINE",
"2259 1008 LINE",
"2107 1008 LINE",
"1888 880 OFFCURVE",
"1723 777 OFFCURVE",
"1610 698 CURVE",
"1610 1251 LINE",
"2482 1251 LINE",
"2482 1391 LINE",
"-35 1391 LINE",
"-35 1251 LINE",
"178 1251 LINE",
"178 195 LINE",
"326 127 LINE",
"504 334 OFFCURVE",
"665 502 OFFCURVE",
"809 631 CURVE",
"809 -49 LINE",
"952 -119 LINE",
"1102 73 OFFCURVE",
"1270 244 OFFCURVE",
"1456 395 CURVE",
"1456 -203 LINE"
);
},
{
closed = 1;
nodes = (
"336 389 LINE",
"336 1251 LINE",
"809 1251 LINE",
"809 829 LINE",
"660 706 OFFCURVE",
"505 559 OFFCURVE",
"344 387 CURVE"
);
},
{
closed = 1;
nodes = (
"963 145 LINE",
"963 764 LINE",
"1103 876 OFFCURVE",
"1241 966 OFFCURVE",
"1450 1071 CURVE",
"1456 1069 LINE",
"1456 590 LINE",
"1279 457 OFFCURVE",
"1117 308 OFFCURVE",
"971 143 CURVE"
);
},
{
closed = 1;
nodes = (
"963 1251 LINE",
"1460 1251 LINE",
"1269 1152 OFFCURVE",
"1103 1051 OFFCURVE",
"963 948 CURVE"
);
}
);
width = 2458;
}
);
note = g54;
},
{
glyphname = g55;
lastChange = "2016-11-10 14:46:36 +0000";
layers = (
{
layerId = "96E79A57-6EA7-45C5-8AEB-CCA87A3E1305";
paths = (
{
closed = 1;
nodes = (
"889 -475 OFFCURVE",
"940 -386 OFFCURVE",
"940 -262 CURVE SMOOTH",
"940 -177 OFFCURVE",
"911 -91 OFFCURVE",
"854 -2 CURVE",
"858 4 LINE",
"915 -17 OFFCURVE",
"997 -27 OFFCURVE",
"1102 -27 CURVE SMOOTH",
"1250 -27 OFFCURVE",
"1402 8 OFFCURVE",
"1518 61 CURVE",
"1518 -414 LINE",
"1673 -414 LINE",
"1673 1251 LINE",
"1888 1251 LINE",
"1888 1391 LINE",
"-35 1391 LINE",
"-35 1251 LINE",
"178 1251 LINE",
"178 340 LINE",
"326 270 LINE",
"463 433 OFFCURVE",
"624 579 OFFCURVE",
"809 709 CURVE",
"809 268 LINE",
"963 268 LINE",
"963 809 LINE",
"1144 919 OFFCURVE",
"1327 1006 OFFCURVE",
"1511 1071 CURVE",
"1518 1069 LINE",
"1518 229 LINE",
"1384 156 OFFCURVE",
"1237 119 OFFCURVE",
"1077 119 CURVE SMOOTH",
"930 119 OFFCURVE",
"778 156 OFFCURVE",
"670 217 CURVE",
"602 88 LINE",
"718 -8 OFFCURVE",
"788 -125 OFFCURVE",
"788 -242 CURVE SMOOTH",
"788 -342 OFFCURVE",
"755 -396 OFFCURVE",
"648 -491 CURVE",
"765 -600 LINE"
);
},
{
closed = 1;
nodes = (
"336 524 LINE",
"336 1251 LINE",
"809 1251 LINE",
"809 885 LINE",
"641 774 OFFCURVE",
"486 653 OFFCURVE",
"344 522 CURVE"
);
},
{
closed = 1;
nodes = (
"963 1251 LINE",
"1522 1251 LINE",
"1316 1172 OFFCURVE",
"1130 1082 OFFCURVE",
"963 981 CURVE"
);
}
);
width = 1874;
}
);
note = g55;
},
{
glyphname = g56;
lastChange = "2016-11-10 14:46:36 +0000";
layers = (
{
layerId = "96E79A57-6EA7-45C5-8AEB-CCA87A3E1305";
paths = (
{
closed = 1;
nodes = (
"1057 0 LINE",
"1057 514 LINE",
"1214 395 OFFCURVE",
"1417 332 OFFCURVE",
"1667 324 CURVE",
"1667 0 LINE",
"1823 0 LINE",
"1823 1251 LINE",
"2021 1251 LINE",
"2021 1391 LINE",
"-35 1391 LINE",
"-35 1251 LINE",
"901 1251 LINE",
"901 1055 LINE",
"858 1055 LINE SMOOTH",
"755 1055 OFFCURVE",
"661 1044 OFFCURVE",
"575 1022 CURVE SMOOTH",
"403 977 OFFCURVE",
"268 897 OFFCURVE",
"92 721 CURVE",
"276 461 OFFCURVE",
"532 336 OFFCURVE",
"901 324 CURVE",
"901 0 LINE"
);
},
{
closed = 1;
nodes = (
"629 477 OFFCURVE",
"391 565 OFFCURVE",
"291 694 CURVE",
"346 748 OFFCURVE",
"397 789 OFFCURVE",
"445 818 CURVE SMOOTH",
"541 874 OFFCURVE",
"655 909 OFFCURVE",
"791 909 CURVE SMOOTH",
"845 909 LINE",
"901 907 LINE",
"901 477 LINE",
"868 477 LINE SMOOTH"
);
},
{
closed = 1;
nodes = (
"1393 477 OFFCURVE",
"1185 558 OFFCURVE",
"1057 694 CURVE",
"1131 759 OFFCURVE",
"1190 803 OFFCURVE",
"1234 828 CURVE SMOOTH",
"1322 877 OFFCURVE",
"1424 909 OFFCURVE",
"1556 909 CURVE SMOOTH",
"1610 909 LINE",
"1667 907 LINE",
"1667 477 LINE",
"1634 477 LINE SMOOTH"
);
},
{
closed = 1;
nodes = (
"1057 1251 LINE",
"1667 1251 LINE",
"1667 1055 LINE",
"1624 1055 LINE SMOOTH",
"1404 1055 OFFCURVE",
"1222 1006 OFFCURVE",
"1057 891 CURVE"
);
}
);
width = 2005;
}
);
note = g56;
},
{
glyphname = g57;
lastChange = "2016-11-10 14:46:36 +0000";
layers = (
{
layerId = "96E79A57-6EA7-45C5-8AEB-CCA87A3E1305";
paths = (
{
closed = 1;
nodes = (
"1256 -110 OFFCURVE",
"1377 66 OFFCURVE",
"1534 186 CURVE",
"1534 94 LINE SMOOTH",
"1534 28 OFFCURVE",
"1541 -22 OFFCURVE",
"1555 -57 CURVE SMOOTH",
"1583 -126 OFFCURVE",
"1643 -168 OFFCURVE",
"1751 -168 CURVE SMOOTH",
"1803 -168 OFFCURVE",
"1854 -152 OFFCURVE",
"1904 -120 CURVE SMOOTH",
"2003 -56 OFFCURVE",
"2081 69 OFFCURVE",
"2081 164 CURVE SMOOTH",
"2081 319 OFFCURVE",
"1975 399 OFFCURVE",
"1790 399 CURVE SMOOTH",
"1761 399 OFFCURVE",
"1727 394 OFFCURVE",
"1686 385 CURVE",
"1686 936 LINE",
"1513 1004 LINE",
"1430 945 OFFCURVE",
"1363 894 OFFCURVE",
"1314 851 CURVE SMOOTH",
"1214 766 OFFCURVE",
"1121 672 OFFCURVE",
"1006 543 CURVE",
"997 545 LINE",
"997 1251 LINE",
"2193 1251 LINE",
"2193 1391 LINE",
"-35 1391 LINE",
"-35 1251 LINE",
"842 1251 LINE",
"842 1133 LINE",
"497 1133 OFFCURVE",
"285 1059 OFFCURVE",
"72 846 CURVE",
"227 623 OFFCURVE",
"462 505 OFFCURVE",
"842 492 CURVE",
"842 340 LINE",
"1014 289 LINE",
"1155 509 OFFCURVE",
"1341 706 OFFCURVE",
"1528 829 CURVE",
"1534 827 LINE",
"1534 340 LINE",
"1314 217 OFFCURVE",
"1137 1 OFFCURVE",
"1053 -250 CURVE",
"1192 -301 LINE"
);
},
{
closed = 1;
nodes = (
"549 643 OFFCURVE",
"386 698 OFFCURVE",
"270 819 CURVE",
"414 944 OFFCURVE",
"569 993 OFFCURVE",
"770 993 CURVE SMOOTH",
"805 993 LINE",
"842 991 LINE",
"842 643 LINE"
);
},
{
closed = 1;
nodes = (
"1694 -25 OFFCURVE",
"1686 14 OFFCURVE",
"1686 90 CURVE SMOOTH",
"1686 258 LINE",
"1717 267 OFFCURVE",
"1750 272 OFFCURVE",
"1786 272 CURVE SMOOTH",
"1871 272 OFFCURVE",
"1925 231 OFFCURVE",
"1925 162 CURVE SMOOTH",
"1925 67 OFFCURVE",
"1845 -25 OFFCURVE",
"1753 -25 CURVE SMOOTH"
);
}
);
width = 2175;
}
);
note = g57;
},
{
glyphname = g58;
lastChange = "2016-11-10 14:46:36 +0000";
layers = (
{
layerId = "96E79A57-6EA7-45C5-8AEB-CCA87A3E1305";
paths = (
{
closed = 1;
nodes = (
"1405 -203 LINE",
"1405 1251 LINE",
"1599 1251 LINE",
"1599 1391 LINE",
"-27 1391 LINE",
"-27 1251 LINE",
"289 1251 LINE",
"177 1146 OFFCURVE",
"121 1026 OFFCURVE",
"121 889 CURVE SMOOTH",
"121 757 OFFCURVE",
"170 642 OFFCURVE",
"262 563 CURVE",
"168 462 OFFCURVE",
"121 350 OFFCURVE",
"121 227 CURVE SMOOTH",
"121 145 OFFCURVE",
"140 71 OFFCURVE",
"177 6 CURVE SMOOTH",
"252 -126 OFFCURVE",
"395 -201 OFFCURVE",
"578 -201 CURVE SMOOTH",
"831 -201 OFFCURVE",
"995 -91 OFFCURVE",
"995 90 CURVE SMOOTH",
"995 175 OFFCURVE",
"962 235 OFFCURVE",
"897 270 CURVE",
"899 276 LINE",
"1249 315 LINE",
"1249 -203 LINE"
);
},
{
closed = 1;
nodes = (
"391 -63 OFFCURVE",
"283 44 OFFCURVE",
"283 229 CURVE SMOOTH",
"283 333 OFFCURVE",
"316 421 OFFCURVE",
"383 494 CURVE",
"441 472 OFFCURVE",
"506 461 OFFCURVE",
"578 461 CURVE SMOOTH",
"833 461 OFFCURVE",
"995 573 OFFCURVE",
"995 754 CURVE SMOOTH",
"995 836 OFFCURVE",
"962 896 OFFCURVE",
"897 934 CURVE",
"899 940 LINE",
"1249 979 LINE",
"1249 451 LINE",
"651 387 LINE",
"643 252 LINE",
"696 251 OFFCURVE",
"736 245 OFFCURVE",
"761 235 CURVE SMOOTH",
"811 215 OFFCURVE",
"840 174 OFFCURVE",
"840 102 CURVE SMOOTH",
"840 -3 OFFCURVE",
"746 -63 OFFCURVE",
"582 -63 CURVE SMOOTH"
);
},
{
closed = 1;
nodes = (
"390 598 OFFCURVE",
"283 707 OFFCURVE",
"283 891 CURVE SMOOTH",
"283 1044 OFFCURVE",
"356 1164 OFFCURVE",
"502 1251 CURVE",
"1249 1251 LINE",
"1249 1112 LINE",
"651 1049 LINE",
"643 913 LINE",
"698 912 OFFCURVE",
"737 906 OFFCURVE",
"762 897 CURVE",
"810 877 OFFCURVE",
"840 837 OFFCURVE",
"840 766 CURVE SMOOTH",
"840 659 OFFCURVE",
"747 598 OFFCURVE",
"582 598 CURVE SMOOTH"
);
}
);
width = 1587;
}
);
note = g58;
},
{
glyphname = g59;
lastChange = "2016-11-10 14:46:36 +0000";
layers = (
{
layerId = "96E79A57-6EA7-45C5-8AEB-CCA87A3E1305";
paths = (
{
closed = 1;
nodes = (
"580 -92 OFFCURVE",
"629 16 OFFCURVE",
"629 121 CURVE SMOOTH",
"629 194 OFFCURVE",
"610 255 OFFCURVE",
"555 330 CURVE",
"561 336 LINE",
"616 315 OFFCURVE",
"671 305 OFFCURVE",
"727 305 CURVE SMOOTH",
"802 305 OFFCURVE",
"876 317 OFFCURVE",
"950 340 CURVE",
"950 -203 LINE",
"1104 -203 LINE",
"1104 1251 LINE",
"1264 1251 LINE",
"1264 1391 LINE",
"-35 1391 LINE",
"-35 1251 LINE",
"950 1251 LINE",
"950 1034 LINE",
"818 970 OFFCURVE",
"706 942 OFFCURVE",
"557 942 CURVE SMOOTH",
"425 942 OFFCURVE",
"281 988 OFFCURVE",
"160 1059 CURVE",
"76 936 LINE",
"164 872 OFFCURVE",
"209 789 OFFCURVE",
"209 668 CURVE SMOOTH",
"209 589 OFFCURVE",
"167 505 OFFCURVE",
"84 416 CURVE",
"215 317 LINE",
"309 422 OFFCURVE",
"356 527 OFFCURVE",
"356 631 CURVE SMOOTH",
"356 710 OFFCURVE",
"338 781 OFFCURVE",
"301 846 CURVE",
"305 852 LINE",
"408 811 OFFCURVE",
"503 791 OFFCURVE",
"588 791 CURVE SMOOTH",
"721 791 OFFCURVE",
"841 817 OFFCURVE",
"950 868 CURVE",
"950 498 LINE",
"871 467 OFFCURVE",
"788 451 OFFCURVE",
"702 451 CURVE SMOOTH",
"610 451 OFFCURVE",
"519 471 OFFCURVE",
"430 512 CURVE",
"350 379 LINE",
"435 317 OFFCURVE",
"477 241 OFFCURVE",
"477 150 CURVE SMOOTH",
"477 66 OFFCURVE",
"433 -11 OFFCURVE",
"354 -98 CURVE",
"481 -203 LINE"
);
}
);
width = 1249;
}
);
note = g59;
},
{
glyphname = g60;
lastChange = "2016-11-10 14:46:36 +0000";
layers = (
{
layerId = "96E79A57-6EA7-45C5-8AEB-CCA87A3E1305";
paths = (
{
closed = 1;
nodes = (
"477 -211 OFFCURVE",
"526 -105 OFFCURVE",
"526 -4 CURVE SMOOTH",
"526 71 OFFCURVE",
"506 133 OFFCURVE",
"453 205 CURVE",
"457 211 LINE",
"523 190 OFFCURVE",
"589 180 OFFCURVE",
"655 180 CURVE SMOOTH",
"753 180 OFFCURVE",
"853 203 OFFCURVE",
"954 250 CURVE",
"954 -203 LINE",
"1108 -203 LINE",
"1108 1251 LINE",
"1284 1251 LINE",
"1284 1391 LINE",
"-35 1391 LINE",
"-35 1251 LINE",
"324 1251 LINE",
"153 1114 OFFCURVE",
"61 947 OFFCURVE",
"61 776 CURVE SMOOTH",
"61 711 OFFCURVE",
"75 655 OFFCURVE",
"102 606 CURVE SMOOTH",
"156 508 OFFCURVE",
"258 451 OFFCURVE",
"377 451 CURVE SMOOTH",
"556 451 OFFCURVE",
"676 566 OFFCURVE",
"676 731 CURVE SMOOTH",
"676 891 OFFCURVE",
"578 1008 OFFCURVE",
"367 1108 CURVE",
"463 1213 OFFCURVE",
"579 1260 OFFCURVE",
"750 1260 CURVE SMOOTH",
"829 1260 OFFCURVE",
"897 1256 OFFCURVE",
"954 1247 CURVE",
"954 408 LINE",
"835 347 OFFCURVE",
"721 317 OFFCURVE",
"612 317 CURVE SMOOTH",
"509 317 OFFCURVE",
"415 339 OFFCURVE",
"328 383 CURVE",
"248 254 LINE",
"333 194 OFFCURVE",
"375 118 OFFCURVE",
"375 25 CURVE SMOOTH",
"375 -50 OFFCURVE",
"333 -133 OFFCURVE",
"250 -223 CURVE",
"379 -324 LINE"
);
},
{
closed = 1;
nodes = (
"278 586 OFFCURVE",
"217 659 OFFCURVE",
"217 778 CURVE SMOOTH",
"217 851 OFFCURVE",
"240 922 OFFCURVE",
"287 991 CURVE",
"436 928 OFFCURVE",
"514 846 OFFCURVE",
"514 733 CURVE SMOOTH",
"514 642 OFFCURVE",
"460 586 OFFCURVE",
"379 586 CURVE SMOOTH"
);
}
);
width = 1268;
}
);
note = g60;
},
{
glyphname = g61;
lastChange = "2016-11-10 14:46:36 +0000";
layers = (
{
layerId = "96E79A57-6EA7-45C5-8AEB-CCA87A3E1305";
paths = (
{
closed = 1;
nodes = (
"1954 -336 OFFCURVE",
"2011 -317 OFFCURVE",
"2075 -270 CURVE",
"1999 -137 LINE",
"1950 -167 OFFCURVE",
"1907 -182 OFFCURVE",
"1870 -182 CURVE SMOOTH",
"1805 -182 OFFCURVE",
"1774 -143 OFFCURVE",
"1774 -39 CURVE SMOOTH",
"1774 936 LINE",
"1604 1004 LINE",
"1511 938 LINE SMOOTH",
"1354 827 OFFCURVE",
"1234 719 OFFCURVE",
"1094 563 CURVE",
"1085 565 LINE",
"1085 1251 LINE",
"2177 1251 LINE",
"2177 1391 LINE",
"-35 1391 LINE",
"-35 1251 LINE",
"592 1251 LINE",
"504 1202 OFFCURVE",
"423 1137 OFFCURVE",
"348 1056 CURVE SMOOTH",
"198 893 OFFCURVE",
"109 699 OFFCURVE",
"109 532 CURVE SMOOTH",
"109 467 OFFCURVE",
"123 408 OFFCURVE",
"150 357 CURVE SMOOTH",
"205 253 OFFCURVE",
"310 190 OFFCURVE",
"426 190 CURVE SMOOTH",
"609 190 OFFCURVE",
"733 320 OFFCURVE",
"733 492 CURVE SMOOTH",
"733 675 OFFCURVE",
"625 804 OFFCURVE",
"408 893 CURVE",
"561 1105 OFFCURVE",
"735 1214 OFFCURVE",
"895 1214 CURVE SMOOTH",
"911 1214 LINE",
"928 1212 LINE",
"928 360 LINE",
"1092 293 LINE",
"1245 522 OFFCURVE",
"1409 690 OFFCURVE",
"1618 831 CURVE",
"1624 827 LINE",
"1624 -45 LINE SMOOTH",
"1624 -242 OFFCURVE",
"1715 -336 OFFCURVE",
"1874 -336 CURVE SMOOTH"
);
},
{
closed = 1;
nodes = (
"340 334 OFFCURVE",
"268 416 OFFCURVE",
"268 524 CURVE SMOOTH",
"268 607 OFFCURVE",
"290 688 OFFCURVE",
"334 768 CURVE",
"491 701 OFFCURVE",
"573 601 OFFCURVE",
"573 481 CURVE SMOOTH",
"573 397 OFFCURVE",
"511 334 OFFCURVE",
"428 334 CURVE SMOOTH"
);
}
);
width = 2150;
}
);
note = g61;
},
{
glyphname = g62;
lastChange = "2016-11-10 14:46:36 +0000";
layers = (
{
layerId = "96E79A57-6EA7-45C5-8AEB-CCA87A3E1305";
paths = (
{
closed = 1;
nodes = (
"705 -403 OFFCURVE",
"827 -292 OFFCURVE",
"827 -133 CURVE SMOOTH",
"827 22 OFFCURVE",
"741 128 OFFCURVE",
"530 225 CURVE",
"655 364 OFFCURVE",
"825 434 OFFCURVE",
"1042 434 CURVE SMOOTH",
"1077 434 LINE",
"1077 -203 LINE",
"1233 -203 LINE",
"1233 1251 LINE",
"1409 1251 LINE",
"1409 1391 LINE",
"-33 1391 LINE",
"-33 1251 LINE",
"342 1251 LINE",
"156 1114 OFFCURVE",
"63 959 OFFCURVE",
"63 786 CURVE SMOOTH",
"63 723 OFFCURVE",
"76 667 OFFCURVE",
"103 619 CURVE SMOOTH",
"155 523 OFFCURVE",
"254 469 OFFCURVE",
"367 469 CURVE SMOOTH",
"543 469 OFFCURVE",
"662 582 OFFCURVE",
"662 741 CURVE SMOOTH",
"662 901 OFFCURVE",
"560 1015 OFFCURVE",
"360 1108 CURVE",
"441 1204 OFFCURVE",
"618 1260 OFFCURVE",
"827 1260 CURVE SMOOTH",
"923 1260 OFFCURVE",
"1006 1256 OFFCURVE",
"1077 1247 CURVE",
"1077 569 LINE",
"1067 569 LINE SMOOTH",
"839 569 OFFCURVE",
"626 498 OFFCURVE",
"474 371 CURVE SMOOTH",
"322 244 OFFCURVE",
"229 73 OFFCURVE",
"229 -86 CURVE SMOOTH",
"229 -277 OFFCURVE",
"355 -403 OFFCURVE",
"532 -403 CURVE SMOOTH"
);
},
{
closed = 1;
nodes = (
"439 -256 OFFCURVE",
"387 -187 OFFCURVE",
"387 -82 CURVE SMOOTH",
"387 -20 OFFCURVE",
"408 45 OFFCURVE",
"449 113 CURVE",
"590 53 OFFCURVE",
"655 -19 OFFCURVE",
"655 -123 CURVE SMOOTH",
"655 -204 OFFCURVE",
"608 -256 OFFCURVE",
"532 -256 CURVE SMOOTH"
);
},
{
closed = 1;
nodes = (
"275 616 OFFCURVE",
"221 683 OFFCURVE",
"221 791 CURVE SMOOTH",
"221 853 OFFCURVE",
"242 918 OFFCURVE",
"283 985 CURVE",
"427 925 OFFCURVE",
"489 852 OFFCURVE",
"489 752 CURVE SMOOTH",
"489 669 OFFCURVE",
"442 616 OFFCURVE",
"367 616 CURVE SMOOTH"
);
}
);
width = 1391;
}
);
note = g62;
},
{
glyphname = g63;
lastChange = "2016-11-10 14:46:36 +0000";
layers = (
{
layerId = "96E79A57-6EA7-45C5-8AEB-CCA87A3E1305";
paths = (
{
closed = 1;
nodes = (
"911 -244 LINE",
"911 1251 LINE",
"1087 1251 LINE",
"1087 1391 LINE",
"-35 1391 LINE",
"-35 1251 LINE",
"758 1251 LINE",
"758 1094 LINE",
"655 1143 OFFCURVE",
"553 1167 OFFCURVE",
"453 1167 CURVE SMOOTH",
"376 1167 OFFCURVE",
"307 1155 OFFCURVE",
"248 1130 CURVE SMOOTH",
"128 1081 OFFCURVE",
"59 982 OFFCURVE",
"59 842 CURVE SMOOTH",
"59 634 OFFCURVE",
"202 514 OFFCURVE",
"451 514 CURVE SMOOTH",
"571 514 OFFCURVE",
"673 540 OFFCURVE",
"758 592 CURVE",
"758 371 LINE",
"661 417 OFFCURVE",
"564 440 OFFCURVE",
"467 440 CURVE SMOOTH",
"224 440 OFFCURVE",
"84 325 OFFCURVE",
"84 133 CURVE SMOOTH",
"84 -74 OFFCURVE",
"230 -197 OFFCURVE",
"461 -197 CURVE SMOOTH",
"570 -197 OFFCURVE",
"669 -171 OFFCURVE",
"758 -119 CURVE",
"758 -244 LINE"
);
},
{
closed = 1;
nodes = (
"322 -57 OFFCURVE",
"242 6 OFFCURVE",
"242 133 CURVE SMOOTH",
"242 246 OFFCURVE",
"326 307 OFFCURVE",
"475 307 CURVE SMOOTH",
"566 307 OFFCURVE",
"661 280 OFFCURVE",
"758 225 CURVE",
"758 39 LINE",
"665 -25 OFFCURVE",
"574 -57 OFFCURVE",
"483 -57 CURVE SMOOTH"
);
},
{
closed = 1;
nodes = (
"409 659 OFFCURVE",
"361 665 OFFCURVE",
"328 677 CURVE SMOOTH",
"263 701 OFFCURVE",
"223 751 OFFCURVE",
"223 842 CURVE SMOOTH",
"223 887 OFFCURVE",
"233 923 OFFCURVE",
"253 949 CURVE SMOOTH",
"293 1001 OFFCURVE",
"353 1024 OFFCURVE",
"492 1024 CURVE SMOOTH",
"585 1024 OFFCURVE",
"674 1001 OFFCURVE",
"758 954 CURVE",
"758 760 LINE",
"675 688 OFFCURVE",
"586 659 OFFCURVE",
"473 659 CURVE SMOOTH"
);
}
);
width = 1067;
}
);
note = g63;
},
{
glyphname = g64;
lastChange = "2016-11-10 14:46:36 +0000";
layers = (
{
layerId = "96E79A57-6EA7-45C5-8AEB-CCA87A3E1305";
paths = (
{
closed = 1;
nodes = (
"1348 -244 LINE",
"1348 1251 LINE",
"1522 1251 LINE",
"1522 1391 LINE",
"-35 1391 LINE",
"-35 1251 LINE",
"68 1251 LINE",
"167 1168 OFFCURVE",
"269 1079 OFFCURVE",
"375 983 CURVE",
"242 866 OFFCURVE",
"184 760 OFFCURVE",
"184 633 CURVE SMOOTH",
"184 482 OFFCURVE",
"300 373 OFFCURVE",
"465 373 CURVE SMOOTH",
"636 373 OFFCURVE",
"752 478 OFFCURVE",
"752 629 CURVE SMOOTH",
"752 756 OFFCURVE",
"700 846 OFFCURVE",
"565 981 CURVE",
"647 1046 OFFCURVE",
"780 1136 OFFCURVE",
"963 1251 CURVE",
"1192 1251 LINE",
"1192 356 LINE",
"1101 397 OFFCURVE",
"1023 426 OFFCURVE",
"924 426 CURVE SMOOTH",
"697 426 OFFCURVE",
"557 314 OFFCURVE",
"557 121 CURVE SMOOTH",
"557 -82 OFFCURVE",
"697 -205 OFFCURVE",
"920 -205 CURVE SMOOTH",
"1032 -205 OFFCURVE",
"1112 -182 OFFCURVE",
"1192 -135 CURVE",
"1192 -244 LINE"
);
},
{
closed = 1;
nodes = (
"785 -70 OFFCURVE",
"709 -6 OFFCURVE",
"709 121 CURVE SMOOTH",
"709 230 OFFCURVE",
"789 295 OFFCURVE",
"930 295 CURVE SMOOTH",
"1015 295 OFFCURVE",
"1103 270 OFFCURVE",
"1192 219 CURVE",
"1192 18 LINE",
"1116 -41 OFFCURVE",
"1031 -70 OFFCURVE",
"938 -70 CURVE SMOOTH"
);
},
{
closed = 1;
nodes = (
"384 500 OFFCURVE",
"332 558 OFFCURVE",
"332 647 CURVE SMOOTH",
"332 725 OFFCURVE",
"376 808 OFFCURVE",
"465 895 CURVE",
"565 792 OFFCURVE",
"608 719 OFFCURVE",
"608 643 CURVE SMOOTH",
"608 556 OFFCURVE",
"549 500 OFFCURVE",
"465 500 CURVE SMOOTH"
);
},
{
closed = 1;
nodes = (
"279 1251 LINE",
"729 1251 LINE",
"612 1169 OFFCURVE",
"528 1108 OFFCURVE",
"477 1067 CURVE"
);
}
);
width = 1509;
}
);
note = g64;
},
{
glyphname = g65;
lastChange = "2016-11-10 14:46:36 +0000";
layers = (
{
layerId = "96E79A57-6EA7-45C5-8AEB-CCA87A3E1305";
paths = (
{
closed = 1;
nodes = (
"1454 -203 LINE",
"1454 1251 LINE",
"1630 1251 LINE",
"1630 1391 LINE",
"-10 1391 LINE",
"-10 1251 LINE",
"41 1251 LINE",
"105 1197 OFFCURVE",
"161 1148 OFFCURVE",
"208 1104 CURVE SMOOTH",
"255 1059 OFFCURVE",
"298 1019 OFFCURVE",
"338 983 CURVE",
"205 866 OFFCURVE",
"147 760 OFFCURVE",
"147 633 CURVE SMOOTH",
"147 482 OFFCURVE",
"263 373 OFFCURVE",
"428 373 CURVE SMOOTH",
"544 373 OFFCURVE",
"629 417 OFFCURVE",
"674 492 CURVE",
"768 416 LINE",
"644 303 OFFCURVE",
"586 202 OFFCURVE",
"586 74 CURVE SMOOTH",
"586 -75 OFFCURVE",
"699 -186 OFFCURVE",
"866 -186 CURVE SMOOTH",
"1039 -186 OFFCURVE",
"1151 -79 OFFCURVE",
"1151 70 CURVE SMOOTH",
"1151 201 OFFCURVE",
"1103 281 OFFCURVE",
"958 416 CURVE",
"1043 482 OFFCURVE",
"1157 560 OFFCURVE",
"1298 651 CURVE",
"1298 -203 LINE"
);
},
{
closed = 1;
nodes = (
"783 -57 OFFCURVE",
"731 4 OFFCURVE",
"731 88 CURVE SMOOTH",
"731 166 OFFCURVE",
"775 247 OFFCURVE",
"862 332 CURVE",
"969 235 OFFCURVE",
"1010 165 OFFCURVE",
"1010 84 CURVE SMOOTH",
"1010 1 OFFCURVE",
"953 -57 OFFCURVE",
"866 -57 CURVE SMOOTH"
);
},
{
closed = 1;
nodes = (
"347 500 OFFCURVE",
"293 558 OFFCURVE",
"293 647 CURVE SMOOTH",
"293 726 OFFCURVE",
"338 809 OFFCURVE",
"428 895 CURVE",
"527 795 OFFCURVE",
"571 722 OFFCURVE",
"571 643 CURVE SMOOTH",
"571 555 OFFCURVE",
"508 500 OFFCURVE",
"428 500 CURVE SMOOTH"
);
},
{
closed = 1;
nodes = (
"242 1251 LINE",
"692 1251 LINE",
"585 1177 OFFCURVE",
"500 1116 OFFCURVE",
"438 1067 CURVE"
);
},
{
closed = 1;
nodes = (
"713 633 LINE",
"710 760 OFFCURVE",
"663 844 OFFCURVE",
"528 981 CURVE",
"631 1062 OFFCURVE",
"763 1152 OFFCURVE",
"924 1251 CURVE",
"1298 1251 LINE",
"1298 805 LINE",
"1089 663 OFFCURVE",
"945 561 OFFCURVE",
"866 500 CURVE"
);
}
);
width = 1614;
}
);
note = g65;
},
{
glyphname = g66;
lastChange = "2016-11-10 14:46:36 +0000";
layers = (
{
layerId = "96E79A57-6EA7-45C5-8AEB-CCA87A3E1305";
paths = (
{
closed = 1;
nodes = (
"1198 -203 LINE",
"1198 1251 LINE",
"1372 1251 LINE",
"1372 1391 LINE",
"-35 1391 LINE",
"-35 1251 LINE",
"899 1251 LINE",
"744 1126 OFFCURVE",
"596 996 OFFCURVE",
"455 860 CURVE SMOOTH",
"406 813 OFFCURVE",
"372 784 OFFCURVE",
"353 773 CURVE SMOOTH",
"333 762 OFFCURVE",
"312 756 OFFCURVE",
"291 756 CURVE SMOOTH",
"252 756 OFFCURVE",
"215 776 OFFCURVE",
"180 817 CURVE",
"70 709 LINE",
"134 622 OFFCURVE",
"200 594 OFFCURVE",
"279 594 CURVE SMOOTH",
"342 594 OFFCURVE",
"392 613 OFFCURVE",
"445 652 CURVE SMOOTH",
"472 671 OFFCURVE",
"517 713 OFFCURVE",
"580 776 CURVE SMOOTH",
"705 905 OFFCURVE",
"824 1016 OFFCURVE",
"1036 1180 CURVE",
"1042 1174 LINE",
"1042 938 LINE",
"870 803 OFFCURVE",
"689 637 OFFCURVE",
"500 440 CURVE SMOOTH",
"486 425 OFFCURVE",
"468 408 OFFCURVE",
"447 387 CURVE",
"403 346 OFFCURVE",
"369 326 OFFCURVE",
"336 326 CURVE SMOOTH",
"295 326 OFFCURVE",
"258 346 OFFCURVE",
"223 387 CURVE",
"113 279 LINE",
"177 192 OFFCURVE",
"243 164 OFFCURVE",
"322 164 CURVE SMOOTH",
"385 164 OFFCURVE",
"439 185 OFFCURVE",
"495 228 CURVE SMOOTH",
"522 249 OFFCURVE",
"566 292 OFFCURVE",
"625 356 CURVE SMOOTH",
"774 523 OFFCURVE",
"883 629 OFFCURVE",
"1042 756 CURVE",
"1042 -203 LINE"
);
},
{
closed = 1;
nodes = (
"842 -276 LINE",
"755 -222 OFFCURVE",
"711 -145 OFFCURVE",
"711 -45 CURVE SMOOTH",
"711 64 OFFCURVE",
"762 153 OFFCURVE",
"918 264 CURVE",
"842 369 LINE",
"772 319 OFFCURVE",
"719 273 OFFCURVE",
"683 232 CURVE SMOOTH",
"611 149 OFFCURVE",
"567 55 OFFCURVE",
"567 -53 CURVE SMOOTH",
"567 -198 OFFCURVE",
"639 -326 OFFCURVE",
"752 -391 CURVE"
);
}
);
width = 1358;
}
);
note = g66;
},
{
glyphname = g67;
lastChange = "2016-11-10 14:46:36 +0000";
layers = (
{
layerId = "96E79A57-6EA7-45C5-8AEB-CCA87A3E1305";
paths = (
{
closed = 1;
nodes = (
"807 10 LINE",
"710 231 OFFCURVE",
"530 402 OFFCURVE",
"358 449 CURVE",
"360 457 LINE",
"517 468 OFFCURVE",
"650 540 OFFCURVE",
"719 647 CURVE",
"832 750 OFFCURVE",
"941 842 OFFCURVE",
"1047 922 CURVE",
"1047 195 LINE",
"1194 127 LINE",
"1362 323 OFFCURVE",
"1530 490 OFFCURVE",
"1698 627 CURVE",
"1698 0 LINE",
"1851 0 LINE",
"1851 750 LINE",
"2027 879 OFFCURVE",
"2211 986 OFFCURVE",
"2402 1071 CURVE",
"2408 1069 LINE",
"2408 0 LINE",
"2562 0 LINE",
"2562 1251 LINE",
"2716 1251 LINE",
"2716 1391 LINE",
"-14 1391 LINE",
"-14 1251 LINE",
"1047 1251 LINE",
"1047 1100 LINE",
"934 1017 OFFCURVE",
"838 941 OFFCURVE",
"758 872 CURVE",
"727 1041 OFFCURVE",
"599 1151 OFFCURVE",
"446 1151 CURVE SMOOTH",
"318 1151 OFFCURVE",
"174 1102 OFFCURVE",
"70 1014 CURVE",
"164 889 LINE",
"253 970 OFFCURVE",
"346 1010 OFFCURVE",
"442 1010 CURVE SMOOTH",
"543 1010 OFFCURVE",
"612 929 OFFCURVE",
"612 805 CURVE SMOOTH",
"612 762 OFFCURVE",
"594 723 OFFCURVE",
"557 689 CURVE SMOOTH",
"483 620 OFFCURVE",
"316 568 OFFCURVE",
"133 553 CURVE",
"133 401 LINE",
"389 342 OFFCURVE",
"563 178 OFFCURVE",
"655 -63 CURVE"
);
},
{
closed = 1;
nodes = (
"1204 389 LINE",
"1204 1251 LINE",
"1698 1251 LINE",
"1698 825 LINE",
"1518 688 OFFCURVE",
"1356 542 OFFCURVE",
"1212 387 CURVE"
);
},
{
closed = 1;
nodes = (
"1851 1251 LINE",
"2413 1251 LINE",
"2206 1152 OFFCURVE",
"2019 1047 OFFCURVE",
"1851 934 CURVE"
);
}
);
width = 2705;
}
);
note = g67;
},
{
glyphname = g68;
lastChange = "2016-11-10 14:46:36 +0000";
layers = (
{
layerId = "96E79A57-6EA7-45C5-8AEB-CCA87A3E1305";
paths = (
{
closed = 1;
nodes = (
"807 10 LINE",
"710 231 OFFCURVE",
"530 402 OFFCURVE",
"358 449 CURVE",
"360 457 LINE",
"511 468 OFFCURVE",
"644 537 OFFCURVE",
"711 633 CURVE",
"863 756 OFFCURVE",
"1132 920 OFFCURVE",
"1425 1061 CURVE",
"1432 1059 LINE",
"1432 739 LINE",
"1109 739 OFFCURVE",
"934 670 OFFCURVE",
"745 471 CURVE",
"892 260 OFFCURVE",
"1096 160 OFFCURVE",
"1432 147 CURVE",
"1432 0 LINE",
"1587 0 LINE",
"1587 1251 LINE",
"1761 1251 LINE",
"1761 1391 LINE",
"-35 1391 LINE",
"-35 1251 LINE",
"1436 1251 LINE",
"1115 1076 OFFCURVE",
"890 943 OFFCURVE",
"762 854 CURVE",
"738 1030 OFFCURVE",
"607 1151 OFFCURVE",
"446 1151 CURVE SMOOTH",
"318 1151 OFFCURVE",
"174 1102 OFFCURVE",
"70 1014 CURVE",
"164 889 LINE",
"253 970 OFFCURVE",
"346 1010 OFFCURVE",
"442 1010 CURVE SMOOTH",
"543 1010 OFFCURVE",
"612 929 OFFCURVE",
"612 805 CURVE SMOOTH",
"612 762 OFFCURVE",
"594 723 OFFCURVE",
"557 689 CURVE SMOOTH",
"483 620 OFFCURVE",
"316 568 OFFCURVE",
"133 553 CURVE",
"133 401 LINE",
"389 342 OFFCURVE",
"563 178 OFFCURVE",
"655 -63 CURVE"
);
},
{
closed = 1;
nodes = (
"1156 295 OFFCURVE",
"1030 345 OFFCURVE",
"942 453 CURVE",
"1041 561 OFFCURVE",
"1174 596 OFFCURVE",
"1335 596 CURVE SMOOTH",
"1378 596 OFFCURVE",
"1410 595 OFFCURVE",
"1432 592 CURVE",
"1432 297 LINE",
"1395 295 LINE",
"1360 295 LINE SMOOTH"
);
}
);
width = 1743;
}
);
note = g68;
},
{
glyphname = g69;
lastChange = "2016-11-10 14:46:36 +0000";
layers = (
{
layerId = "96E79A57-6EA7-45C5-8AEB-CCA87A3E1305";
paths = (
{
closed = 1;
nodes = (
"1463 -110 OFFCURVE",
"1584 66 OFFCURVE",
"1741 186 CURVE",
"1741 94 LINE SMOOTH",
"1741 28 OFFCURVE",
"1748 -22 OFFCURVE",
"1762 -57 CURVE SMOOTH",
"1790 -126 OFFCURVE",
"1850 -168 OFFCURVE",
"1958 -168 CURVE SMOOTH",
"2010 -168 OFFCURVE",
"2061 -152 OFFCURVE",
"2111 -120 CURVE SMOOTH",
"2210 -56 OFFCURVE",
"2288 69 OFFCURVE",
"2288 164 CURVE SMOOTH",
"2288 319 OFFCURVE",
"2182 399 OFFCURVE",
"1997 399 CURVE SMOOTH",
"1968 399 OFFCURVE",
"1933 394 OFFCURVE",
"1892 385 CURVE",
"1892 936 LINE",
"1720 1004 LINE",
"1465 824 OFFCURVE",
"1363 728 OFFCURVE",
"1212 563 CURVE",
"1204 565 LINE",
"1204 1251 LINE",
"2400 1251 LINE",
"2400 1391 LINE",
"-16 1391 LINE",
"-16 1251 LINE",
"1047 1251 LINE",
"1047 1100 LINE",
"934 1017 OFFCURVE",
"838 941 OFFCURVE",
"758 872 CURVE",
"727 1041 OFFCURVE",
"599 1151 OFFCURVE",
"446 1151 CURVE SMOOTH",
"318 1151 OFFCURVE",
"174 1102 OFFCURVE",
"70 1014 CURVE",
"164 889 LINE",
"253 970 OFFCURVE",
"346 1010 OFFCURVE",
"442 1010 CURVE SMOOTH",
"543 1010 OFFCURVE",
"612 929 OFFCURVE",
"612 805 CURVE SMOOTH",
"612 762 OFFCURVE",
"594 723 OFFCURVE",
"557 689 CURVE SMOOTH",
"483 620 OFFCURVE",
"316 568 OFFCURVE",
"133 553 CURVE",
"133 401 LINE",
"389 342 OFFCURVE",
"563 178 OFFCURVE",
"655 -63 CURVE",
"807 10 LINE",
"710 231 OFFCURVE",
"530 402 OFFCURVE",
"358 449 CURVE",
"360 457 LINE",
"517 468 OFFCURVE",
"650 540 OFFCURVE",
"719 647 CURVE",
"832 750 OFFCURVE",
"941 842 OFFCURVE",
"1047 922 CURVE",
"1047 360 LINE",
"1210 293 LINE",
"1261 376 OFFCURVE",
"1315 449 OFFCURVE",
"1370 512 CURVE SMOOTH",
"1481 639 OFFCURVE",
"1566 717 OFFCURVE",
"1735 829 CURVE",
"1741 827 LINE",
"1741 340 LINE",
"1521 217 OFFCURVE",
"1344 1 OFFCURVE",
"1260 -250 CURVE",
"1399 -301 LINE"
);
},
{
closed = 1;
nodes = (
"1901 -25 OFFCURVE",
"1892 14 OFFCURVE",
"1892 90 CURVE SMOOTH",
"1892 258 LINE",
"1923 267 OFFCURVE",
"1956 272 OFFCURVE",
"1993 272 CURVE SMOOTH",
"2078 272 OFFCURVE",
"2132 231 OFFCURVE",
"2132 162 CURVE SMOOTH",
"2132 67 OFFCURVE",
"2052 -25 OFFCURVE",
"1960 -25 CURVE SMOOTH"
);
}
);
width = 2386;
}
);
note = g69;
},
{
glyphname = g70;
lastChange = "2016-11-10 14:46:36 +0000";
layers = (
{
layerId = "96E79A57-6EA7-45C5-8AEB-CCA87A3E1305";
paths = (
{
closed = 1;
nodes = (
"1090 -12 OFFCURVE",
"1147 120 OFFCURVE",
"1147 223 CURVE SMOOTH",
"1147 296 OFFCURVE",
"1122 365 OFFCURVE",
"1073 432 CURVE",
"1077 438 LINE",
"1145 418 OFFCURVE",
"1211 408 OFFCURVE",
"1276 408 CURVE SMOOTH",
"1332 408 OFFCURVE",
"1384 416 OFFCURVE",
"1432 432 CURVE",
"1432 0 LINE",
"1587 0 LINE",
"1587 1251 LINE",
"1761 1251 LINE",
"1761 1391 LINE",
"-35 1391 LINE",
"-35 1251 LINE",
"1436 1251 LINE",
"1115 1076 OFFCURVE",
"890 943 OFFCURVE",
"762 854 CURVE",
"738 1030 OFFCURVE",
"607 1151 OFFCURVE",
"446 1151 CURVE SMOOTH",
"318 1151 OFFCURVE",
"174 1102 OFFCURVE",
"70 1014 CURVE",
"164 889 LINE",
"253 970 OFFCURVE",
"346 1010 OFFCURVE",
"442 1010 CURVE SMOOTH",
"543 1010 OFFCURVE",
"612 929 OFFCURVE",
"612 805 CURVE SMOOTH",
"612 762 OFFCURVE",
"594 723 OFFCURVE",
"557 689 CURVE SMOOTH",
"483 620 OFFCURVE",
"316 568 OFFCURVE",
"133 553 CURVE",
"133 401 LINE",
"368 348 OFFCURVE",
"535 193 OFFCURVE",
"635 -63 CURVE",
"786 10 LINE",
"683 243 OFFCURVE",
"521 404 OFFCURVE",
"358 449 CURVE",
"360 457 LINE",
"511 468 OFFCURVE",
"644 537 OFFCURVE",
"711 633 CURVE",
"863 756 OFFCURVE",
"1132 920 OFFCURVE",
"1425 1061 CURVE",
"1432 1059 LINE",
"1432 586 LINE",
"1364 559 OFFCURVE",
"1298 545 OFFCURVE",
"1233 545 CURVE SMOOTH",
"1130 545 OFFCURVE",
"1035 567 OFFCURVE",
"948 610 CURVE",
"868 481 LINE",
"953 422 OFFCURVE",
"995 345 OFFCURVE",
"995 252 CURVE SMOOTH",
"995 169 OFFCURVE",
"946 67 OFFCURVE",
"866 -20 CURVE",
"995 -121 LINE"
);
}
);
width = 1743;
}
);
note = g70;
},
{
glyphname = g71;
lastChange = "2016-11-10 14:46:36 +0000";
layers = (
{
layerId = "96E79A57-6EA7-45C5-8AEB-CCA87A3E1305";
paths = (
{
closed = 1;
nodes = (
"807 10 LINE",
"710 231 OFFCURVE",
"530 402 OFFCURVE",
"358 449 CURVE",
"360 457 LINE",
"511 468 OFFCURVE",
"644 537 OFFCURVE",
"711 633 CURVE",
"863 756 OFFCURVE",
"1132 920 OFFCURVE",
"1425 1061 CURVE",
"1432 1059 LINE",
"1432 639 LINE",
"1343 680 OFFCURVE",
"1262 709 OFFCURVE",
"1165 709 CURVE SMOOTH",
"934 709 OFFCURVE",
"797 593 OFFCURVE",
"797 401 CURVE SMOOTH",
"797 330 OFFCURVE",
"813 271 OFFCURVE",
"845 222 CURVE SMOOTH",
"908 124 OFFCURVE",
"1025 72 OFFCURVE",
"1174 72 CURVE SMOOTH",
"1282 72 OFFCURVE",
"1356 104 OFFCURVE",
"1432 152 CURVE",
"1432 0 LINE",
"1587 0 LINE",
"1587 1251 LINE",
"1761 1251 LINE",
"1761 1391 LINE",
"-35 1391 LINE",
"-35 1251 LINE",
"1436 1251 LINE",
"1115 1076 OFFCURVE",
"890 943 OFFCURVE",
"762 854 CURVE",
"738 1030 OFFCURVE",
"607 1151 OFFCURVE",
"446 1151 CURVE SMOOTH",
"318 1151 OFFCURVE",
"174 1102 OFFCURVE",
"70 1014 CURVE",
"164 889 LINE",
"253 970 OFFCURVE",
"346 1010 OFFCURVE",
"442 1010 CURVE SMOOTH",
"543 1010 OFFCURVE",
"612 929 OFFCURVE",
"612 805 CURVE SMOOTH",
"612 762 OFFCURVE",
"594 723 OFFCURVE",
"557 689 CURVE SMOOTH",
"483 620 OFFCURVE",
"316 568 OFFCURVE",
"133 553 CURVE",
"133 401 LINE",
"389 342 OFFCURVE",
"563 178 OFFCURVE",
"655 -63 CURVE"
);
},
{
closed = 1;
nodes = (
"1029 209 OFFCURVE",
"954 273 OFFCURVE",
"954 401 CURVE SMOOTH",
"954 519 OFFCURVE",
"1030 578 OFFCURVE",
"1182 578 CURVE SMOOTH",
"1269 578 OFFCURVE",
"1353 554 OFFCURVE",
"1432 506 CURVE",
"1432 295 LINE",
"1359 238 OFFCURVE",
"1275 209 OFFCURVE",
"1180 209 CURVE SMOOTH"
);
}
